<svg xmlns="http://www.w3.org/2000/svg" xmlns:xlink="http://www.w3.org/1999/xlink" width="1080" zoomAndPan="magnify" viewBox="0 0 810 809.999993" height="1080" preserveAspectRatio="xMidYMid meet" version="1.0"><defs><clipPath id="ebeca87de3"><path d="M 5 81 L 810 81 L 810 657 L 5 657 Z M 5 81 " clip-rule="nonzero"/></clipPath></defs><g clip-path="url(#ebeca87de3)"><path fill="#ffffff" d="M 504.871094 81.433594 C 508.136719 81.003906 511.851562 81.210938 515.167969 81.261719 C 516.570312 81.285156 517.976562 81.324219 519.382812 81.382812 C 520.785156 81.4375 522.1875 81.511719 523.59375 81.605469 C 524.996094 81.695312 526.394531 81.804688 527.796875 81.929688 C 529.195312 82.058594 530.59375 82.199219 531.992188 82.359375 C 533.386719 82.519531 534.78125 82.699219 536.171875 82.890625 C 537.566406 83.085938 538.957031 83.296875 540.339844 83.527344 C 541.726562 83.753906 543.113281 84 544.492188 84.261719 C 545.875 84.523438 547.253906 84.804688 548.625 85.097656 C 550 85.394531 551.371094 85.707031 552.738281 86.035156 C 554.105469 86.367188 555.464844 86.710938 556.824219 87.074219 C 558.179688 87.4375 559.535156 87.816406 560.882812 88.214844 C 562.230469 88.609375 563.574219 89.023438 564.914062 89.449219 C 566.253906 89.878906 567.585938 90.324219 568.914062 90.785156 C 570.242188 91.246094 571.5625 91.726562 572.878906 92.21875 C 574.195312 92.710938 575.503906 93.222656 576.808594 93.75 C 578.113281 94.273438 579.410156 94.816406 580.699219 95.375 C 581.988281 95.929688 583.273438 96.503906 584.550781 97.09375 C 585.824219 97.683594 587.09375 98.289062 588.355469 98.90625 C 589.617188 99.527344 590.871094 100.164062 592.117188 100.8125 C 593.363281 101.464844 594.597656 102.128906 595.828125 102.8125 C 597.058594 103.492188 598.277344 104.1875 599.492188 104.898438 C 600.703125 105.609375 601.90625 106.335938 603.101562 107.078125 C 604.296875 107.816406 605.484375 108.574219 606.660156 109.34375 C 607.835938 110.113281 609.003906 110.894531 610.160156 111.691406 C 611.316406 112.492188 612.464844 113.304688 613.601562 114.128906 C 614.738281 114.957031 615.863281 115.796875 616.980469 116.648438 C 618.097656 117.503906 619.203125 118.371094 620.300781 119.25 C 621.394531 120.132812 622.480469 121.027344 623.550781 121.933594 C 624.625 122.839844 625.6875 123.761719 626.738281 124.695312 C 627.789062 125.628906 628.832031 126.574219 629.859375 127.53125 C 630.886719 128.492188 631.902344 129.460938 632.90625 130.445312 C 633.910156 131.429688 634.902344 132.425781 635.882812 133.433594 C 636.703125 134.285156 637.515625 135.148438 638.324219 136.015625 C 639.128906 136.886719 639.921875 137.765625 640.707031 138.652344 C 641.496094 139.539062 642.269531 140.433594 643.039062 141.335938 C 643.808594 142.238281 644.566406 143.148438 645.3125 144.066406 C 646.0625 144.984375 646.800781 145.910156 647.53125 146.847656 C 648.261719 147.78125 648.980469 148.722656 649.6875 149.671875 C 650.398438 150.621094 651.097656 151.574219 651.785156 152.539062 C 652.476562 153.503906 653.15625 154.472656 653.824219 155.453125 C 654.496094 156.429688 655.152344 157.414062 655.800781 158.40625 C 656.449219 159.398438 657.089844 160.398438 657.714844 161.402344 C 658.34375 162.40625 658.960938 163.417969 659.566406 164.4375 C 660.175781 165.453125 660.769531 166.476562 661.355469 167.507812 C 661.941406 168.539062 662.515625 169.574219 663.078125 170.617188 C 663.640625 171.660156 664.195312 172.707031 664.734375 173.761719 C 665.277344 174.816406 665.808594 175.875 666.328125 176.941406 C 666.847656 178.007812 667.355469 179.078125 667.851562 180.152344 C 668.347656 181.226562 668.835938 182.308594 669.308594 183.394531 C 669.78125 184.480469 670.246094 185.570312 670.699219 186.667969 C 671.148438 187.761719 671.589844 188.863281 672.019531 189.96875 C 672.445312 191.070312 672.863281 192.179688 673.269531 193.292969 C 673.675781 194.410156 674.066406 195.527344 674.449219 196.648438 C 674.832031 197.769531 675.203125 198.894531 675.558594 200.023438 C 675.917969 201.152344 676.265625 202.285156 676.601562 203.421875 C 676.933594 204.558594 677.257812 205.699219 677.570312 206.84375 C 677.878906 207.988281 678.179688 209.132812 678.464844 210.28125 C 678.753906 211.433594 679.027344 212.585938 679.289062 213.742188 C 679.554688 214.898438 679.804688 216.054688 680.042969 217.214844 C 680.28125 218.375 680.507812 219.539062 680.722656 220.703125 C 680.9375 221.871094 681.140625 223.039062 681.328125 224.207031 C 681.519531 225.375 681.695312 226.546875 681.863281 227.722656 C 682.027344 228.894531 682.179688 230.070312 682.320312 231.246094 C 682.460938 232.421875 682.589844 233.601562 682.707031 234.78125 C 683.65625 244.03125 683.578125 253.242188 683.425781 262.53125 C 690.550781 263.988281 697.652344 265.582031 704.53125 267.976562 C 725.628906 275.316406 745.71875 288.605469 761.328125 304.503906 C 794.101562 337.886719 809.5 377.839844 809.03125 424.441406 C 808.617188 465.800781 792.003906 503.886719 762.550781 532.742188 C 741.15625 553.699219 710.9375 567.878906 681.3125 572.003906 C 670.167969 573.554688 659.121094 573.570312 647.898438 573.460938 C 644.25 584.296875 638.074219 595.980469 631.050781 605.003906 C 630.378906 605.867188 629.695312 606.726562 629 607.574219 C 628.308594 608.421875 627.601562 609.261719 626.890625 610.09375 C 626.171875 610.925781 625.449219 611.746094 624.714844 612.558594 C 623.976562 613.375 623.230469 614.175781 622.476562 614.972656 C 621.722656 615.765625 620.957031 616.550781 620.183594 617.328125 C 619.410156 618.105469 618.625 618.867188 617.832031 619.625 C 617.039062 620.382812 616.234375 621.128906 615.421875 621.867188 C 614.609375 622.601562 613.789062 623.328125 612.960938 624.046875 C 612.128906 624.761719 611.289062 625.464844 610.441406 626.164062 C 609.597656 626.859375 608.742188 627.542969 607.875 628.21875 C 607.011719 628.890625 606.140625 629.554688 605.257812 630.207031 C 604.375 630.859375 603.488281 631.503906 602.589844 632.132812 C 601.695312 632.765625 600.789062 633.382812 599.878906 633.992188 C 598.96875 634.601562 598.046875 635.195312 597.121094 635.78125 C 596.195312 636.367188 595.261719 636.941406 594.320312 637.503906 C 593.378906 638.066406 592.429688 638.617188 591.476562 639.15625 C 590.519531 639.695312 589.558594 640.222656 588.59375 640.738281 C 587.625 641.253906 586.652344 641.757812 585.671875 642.25 C 584.691406 642.738281 583.703125 643.21875 582.710938 643.6875 C 581.71875 644.152344 580.722656 644.609375 579.71875 645.050781 C 578.714844 645.492188 577.707031 645.921875 576.695312 646.339844 C 575.679688 646.757812 574.664062 647.160156 573.636719 647.554688 C 572.613281 647.945312 571.585938 648.324219 570.554688 648.691406 C 569.519531 649.058594 568.480469 649.410156 567.441406 649.753906 C 566.398438 650.09375 565.351562 650.421875 564.300781 650.734375 C 563.25 651.050781 562.199219 651.351562 561.140625 651.640625 C 560.082031 651.929688 559.019531 652.207031 557.957031 652.46875 C 556.894531 652.734375 555.824219 652.980469 554.753906 653.21875 C 553.683594 653.453125 552.609375 653.675781 551.535156 653.886719 C 550.460938 654.097656 549.378906 654.292969 548.300781 654.476562 C 547.21875 654.660156 546.136719 654.828125 545.050781 654.984375 C 543.964844 655.140625 542.878906 655.285156 541.789062 655.414062 C 540.875 655.527344 539.957031 655.628906 539.042969 655.722656 C 538.125 655.816406 537.207031 655.898438 536.289062 655.972656 C 535.371094 656.046875 534.449219 656.113281 533.527344 656.164062 C 532.609375 656.21875 531.6875 656.265625 530.765625 656.300781 C 529.847656 656.335938 528.925781 656.363281 528.003906 656.378906 C 527.082031 656.394531 526.160156 656.398438 525.238281 656.394531 C 524.316406 656.390625 523.394531 656.378906 522.472656 656.355469 C 521.550781 656.332031 520.628906 656.300781 519.707031 656.257812 C 518.789062 656.214844 517.867188 656.164062 516.949219 656.101562 C 516.027344 656.039062 515.109375 655.96875 514.191406 655.886719 C 513.273438 655.804688 512.355469 655.714844 511.441406 655.613281 C 510.523438 655.515625 509.609375 655.402344 508.695312 655.285156 C 507.78125 655.164062 506.867188 655.035156 505.957031 654.894531 C 505.042969 654.757812 504.132812 654.609375 503.226562 654.449219 C 502.316406 654.292969 501.410156 654.125 500.507812 653.949219 C 499.601562 653.769531 498.699219 653.585938 497.800781 653.386719 C 496.898438 653.191406 496 652.984375 495.101562 652.769531 C 494.207031 652.554688 493.3125 652.332031 492.421875 652.097656 C 491.53125 651.863281 490.640625 651.621094 489.753906 651.367188 C 488.867188 651.117188 487.984375 650.855469 487.101562 650.582031 C 486.222656 650.308594 485.34375 650.03125 484.46875 649.742188 C 483.59375 649.449219 482.722656 649.152344 481.851562 648.84375 C 480.984375 648.535156 480.117188 648.21875 479.257812 647.890625 C 478.394531 647.566406 477.535156 647.230469 476.679688 646.886719 C 475.824219 646.542969 474.972656 646.1875 474.125 645.824219 C 473.277344 645.464844 472.433594 645.09375 471.59375 644.710938 C 470.753906 644.332031 469.917969 643.945312 469.089844 643.546875 C 468.257812 643.148438 467.429688 642.742188 466.605469 642.328125 C 465.78125 641.910156 464.964844 641.488281 464.148438 641.054688 C 463.335938 640.621094 462.527344 640.179688 461.722656 639.734375 C 460.917969 639.28125 460.117188 638.824219 459.320312 638.359375 C 458.527344 637.894531 457.734375 637.417969 456.949219 636.933594 C 450.007812 632.691406 443.636719 627.710938 437.234375 622.710938 C 426.917969 632.5625 413.761719 640.765625 400.667969 646.402344 C 399.691406 646.828125 398.707031 647.242188 397.71875 647.644531 C 396.730469 648.042969 395.738281 648.433594 394.738281 648.808594 C 393.742188 649.183594 392.738281 649.546875 391.730469 649.898438 C 390.726562 650.25 389.714844 650.589844 388.699219 650.914062 C 387.683594 651.242188 386.664062 651.554688 385.640625 651.855469 C 384.617188 652.15625 383.589844 652.441406 382.558594 652.71875 C 381.53125 652.992188 380.496094 653.253906 379.457031 653.503906 C 378.421875 653.753906 377.382812 653.992188 376.339844 654.214844 C 375.296875 654.4375 374.25 654.648438 373.203125 654.84375 C 372.15625 655.042969 371.105469 655.226562 370.050781 655.398438 C 369 655.570312 367.945312 655.726562 366.886719 655.875 C 365.832031 656.019531 364.773438 656.148438 363.714844 656.269531 C 362.652344 656.386719 361.59375 656.492188 360.53125 656.585938 C 359.46875 656.679688 358.402344 656.757812 357.339844 656.824219 C 356.273438 656.890625 355.210938 656.941406 354.144531 656.980469 C 353.078125 657.019531 352.011719 657.046875 350.945312 657.0625 C 349.878906 657.074219 348.8125 657.074219 347.746094 657.058594 C 346.679688 657.046875 345.613281 657.019531 344.546875 656.980469 C 343.480469 656.941406 342.417969 656.886719 341.351562 656.820312 C 340.289062 656.753906 339.226562 656.671875 338.164062 656.582031 C 337.101562 656.488281 336.039062 656.382812 334.980469 656.261719 C 333.917969 656.144531 332.859375 656.011719 331.804688 655.863281 C 330.75 655.71875 329.695312 655.558594 328.640625 655.390625 C 327.589844 655.214844 326.539062 655.03125 325.492188 654.832031 C 324.441406 654.636719 323.398438 654.425781 322.355469 654.199219 C 321.3125 653.976562 320.273438 653.738281 319.234375 653.488281 C 318.199219 653.238281 317.164062 652.976562 316.132812 652.703125 C 315.101562 652.425781 314.078125 652.136719 313.054688 651.835938 C 312.03125 651.535156 311.011719 651.222656 309.996094 650.894531 C 308.980469 650.570312 307.96875 650.230469 306.960938 649.878906 C 305.957031 649.527344 304.953125 649.164062 303.957031 648.785156 C 302.957031 648.410156 301.964844 648.019531 300.976562 647.621094 C 299.476562 646.984375 297.988281 646.324219 296.515625 645.636719 C 295.039062 644.949219 293.574219 644.238281 292.125 643.5 C 290.675781 642.757812 289.238281 641.996094 287.8125 641.207031 C 286.390625 640.414062 284.980469 639.601562 283.585938 638.761719 C 282.191406 637.921875 280.8125 637.058594 279.445312 636.171875 C 278.082031 635.285156 276.734375 634.371094 275.402344 633.4375 C 274.070312 632.5 272.753906 631.542969 271.457031 630.558594 C 270.15625 629.578125 268.875 628.574219 267.613281 627.546875 C 266.351562 626.519531 265.109375 625.46875 263.882812 624.398438 C 262.65625 623.328125 261.449219 622.234375 260.261719 621.121094 C 259.074219 620.007812 257.90625 618.871094 256.761719 617.71875 C 255.613281 616.5625 254.488281 615.386719 253.378906 614.191406 C 252.273438 612.996094 251.191406 611.78125 250.128906 610.550781 C 249.066406 609.316406 248.023438 608.066406 247.007812 606.796875 C 245.988281 605.527344 244.992188 604.238281 244.019531 602.933594 C 243.046875 601.628906 242.097656 600.304688 241.167969 598.96875 C 236.664062 592.378906 232.972656 585.183594 228.921875 578.304688 C 194.164062 592.871094 156.9375 595.542969 120.839844 583.972656 C 119.519531 583.539062 118.207031 583.089844 116.894531 582.625 C 115.585938 582.160156 114.285156 581.675781 112.988281 581.179688 C 111.6875 580.683594 110.398438 580.167969 109.113281 579.636719 C 107.828125 579.109375 106.550781 578.5625 105.277344 578.003906 C 104.007812 577.441406 102.742188 576.863281 101.484375 576.273438 C 100.226562 575.679688 98.976562 575.074219 97.734375 574.449219 C 96.492188 573.828125 95.257812 573.191406 94.03125 572.535156 C 92.804688 571.882812 91.585938 571.214844 90.375 570.53125 C 89.164062 569.851562 87.964844 569.152344 86.769531 568.441406 C 85.578125 567.726562 84.394531 567 83.21875 566.257812 C 82.039062 565.519531 80.875 564.761719 79.71875 563.992188 C 78.5625 563.222656 77.414062 562.4375 76.277344 561.640625 C 75.140625 560.839844 74.011719 560.03125 72.894531 559.203125 C 71.777344 558.378906 70.667969 557.539062 69.570312 556.683594 C 68.472656 555.832031 67.386719 554.964844 66.3125 554.085938 C 65.234375 553.207031 64.171875 552.3125 63.117188 551.40625 C 62.0625 550.5 61.019531 549.582031 59.988281 548.652344 C 58.957031 547.71875 57.9375 546.777344 56.929688 545.820312 C 55.921875 544.863281 54.925781 543.894531 53.941406 542.914062 C 52.957031 541.933594 51.984375 540.9375 51.023438 539.933594 C 50.0625 538.929688 49.113281 537.914062 48.179688 536.886719 C 47.246094 535.859375 46.320312 534.816406 45.414062 533.765625 C 44.503906 532.71875 43.605469 531.65625 42.722656 530.582031 C 41.839844 529.511719 40.96875 528.425781 40.109375 527.332031 C 39.253906 526.238281 38.410156 525.132812 37.582031 524.019531 C 36.75 522.90625 35.933594 521.78125 35.132812 520.644531 C 34.332031 519.511719 33.542969 518.367188 32.765625 517.210938 C 31.992188 516.058594 31.234375 514.894531 30.488281 513.722656 C 29.742188 512.546875 29.011719 511.367188 28.292969 510.175781 C 27.578125 508.984375 26.875 507.785156 26.1875 506.578125 C 25.5 505.371094 24.828125 504.152344 24.167969 502.929688 C 23.511719 501.707031 22.871094 500.472656 22.242188 499.234375 C 2.953125 461.347656 0.414062 414.867188 13.546875 374.648438 C 23.519531 344.109375 42.320312 315.1875 67.5625 295.101562 C 77.53125 287.164062 88.261719 280.796875 99.609375 275.054688 C 98.882812 269.710938 99.480469 263.71875 99.84375 258.335938 C 102.019531 226.339844 113.886719 195.558594 132.027344 169.292969 C 157.421875 132.527344 199.351562 107.824219 242.976562 99.957031 C 279.996094 93.28125 321.867188 100.679688 354.800781 118.550781 C 365.496094 124.351562 375.089844 131.550781 385.054688 138.484375 C 417.496094 104.160156 457.78125 84.917969 504.871094 81.433594 Z M 504.871094 81.433594 " fill-opacity="1" fill-rule="nonzero"/></g><path fill="#ffffff" d="M 514.773438 98.167969 C 518.429688 98.109375 522.148438 98.304688 525.796875 98.574219 C 568.632812 101.703125 605.460938 122.03125 633.214844 154.351562 C 634.070312 155.347656 634.910156 156.355469 635.738281 157.375 C 636.566406 158.394531 637.382812 159.421875 638.1875 160.460938 C 638.988281 161.5 639.777344 162.550781 640.554688 163.609375 C 641.332031 164.667969 642.097656 165.734375 642.847656 166.8125 C 643.597656 167.890625 644.335938 168.976562 645.058594 170.070312 C 645.785156 171.167969 646.496094 172.269531 647.191406 173.382812 C 647.886719 174.496094 648.570312 175.617188 649.238281 176.75 C 649.910156 177.878906 650.5625 179.015625 651.203125 180.164062 C 651.84375 181.308594 652.472656 182.460938 653.082031 183.625 C 653.695312 184.785156 654.292969 185.957031 654.875 187.132812 C 655.460938 188.308594 656.027344 189.492188 656.582031 190.679688 C 657.136719 191.871094 657.675781 193.070312 658.199219 194.273438 C 658.722656 195.476562 659.234375 196.6875 659.730469 197.902344 C 660.222656 199.121094 660.703125 200.34375 661.167969 201.570312 C 661.632812 202.796875 662.082031 204.03125 662.515625 205.273438 C 662.949219 206.511719 663.367188 207.753906 663.769531 209.003906 C 664.171875 210.253906 664.558594 211.507812 664.933594 212.769531 C 665.304688 214.027344 665.660156 215.292969 666 216.558594 C 666.34375 217.828125 666.667969 219.101562 666.976562 220.375 C 667.285156 221.652344 667.578125 222.933594 667.855469 224.214844 C 668.132812 225.5 668.394531 226.785156 668.640625 228.074219 C 668.886719 229.367188 669.117188 230.660156 669.332031 231.953125 C 669.546875 233.25 669.742188 234.546875 669.925781 235.847656 C 670.105469 237.148438 670.273438 238.449219 670.421875 239.753906 C 670.570312 241.058594 670.707031 242.367188 670.824219 243.675781 C 670.941406 244.980469 671.042969 246.292969 671.125 247.601562 C 671.210938 248.914062 671.28125 250.222656 671.332031 251.535156 C 671.386719 252.847656 671.421875 254.160156 671.441406 255.472656 C 671.460938 256.785156 671.464844 258.097656 671.453125 259.410156 C 671.441406 260.722656 671.410156 262.039062 671.367188 263.347656 C 671.320312 264.660156 671.261719 265.972656 671.183594 267.285156 C 671.105469 268.597656 671.011719 269.90625 670.902344 271.214844 C 709.28125 277.78125 738.230469 292.5625 763.425781 322.675781 C 764.195312 323.589844 764.957031 324.511719 765.707031 325.445312 C 766.457031 326.375 767.195312 327.316406 767.917969 328.269531 C 768.644531 329.21875 769.359375 330.179688 770.0625 331.144531 C 770.765625 332.113281 771.457031 333.089844 772.132812 334.074219 C 772.8125 335.058594 773.480469 336.054688 774.132812 337.054688 C 774.789062 338.054688 775.429688 339.066406 776.058594 340.082031 C 776.6875 341.101562 777.304688 342.125 777.910156 343.15625 C 778.511719 344.1875 779.105469 345.230469 779.683594 346.277344 C 780.261719 347.324219 780.828125 348.378906 781.378906 349.4375 C 781.933594 350.5 782.472656 351.566406 783 352.640625 C 783.523438 353.714844 784.039062 354.792969 784.535156 355.882812 C 785.035156 356.96875 785.523438 358.058594 785.996094 359.160156 C 786.46875 360.257812 786.929688 361.363281 787.375 362.472656 C 787.820312 363.582031 788.25 364.699219 788.667969 365.816406 C 789.085938 366.9375 789.492188 368.066406 789.882812 369.195312 C 790.273438 370.328125 790.648438 371.460938 791.011719 372.601562 C 791.375 373.742188 791.722656 374.882812 792.054688 376.03125 C 792.390625 377.179688 792.710938 378.335938 793.015625 379.492188 C 793.324219 380.648438 793.613281 381.808594 793.890625 382.96875 C 794.171875 384.132812 794.433594 385.300781 794.679688 386.46875 C 794.929688 387.640625 795.164062 388.8125 795.382812 389.988281 C 795.605469 391.164062 795.808594 392.34375 796 393.523438 C 796.191406 394.703125 796.367188 395.886719 796.53125 397.070312 C 796.691406 398.257812 796.835938 399.445312 796.972656 400.632812 C 797.105469 401.820312 797.222656 403.011719 797.324219 404.203125 C 797.425781 405.394531 797.515625 406.589844 797.589844 407.78125 C 797.664062 408.976562 797.722656 410.171875 797.765625 411.367188 C 797.8125 412.5625 797.839844 413.757812 797.855469 414.953125 C 797.871094 416.148438 797.871094 417.34375 797.855469 418.539062 C 797.84375 419.738281 797.8125 420.933594 797.769531 422.128906 C 797.726562 423.324219 797.667969 424.519531 797.59375 425.710938 C 797.519531 426.90625 797.433594 428.097656 797.332031 429.289062 C 793.9375 466.710938 773.246094 502.660156 744.476562 526.527344 C 723 544.339844 694.777344 555.546875 666.875 556.804688 C 657.007812 557.25 647.378906 556.339844 637.578125 555.402344 C 631.1875 574.496094 620.894531 593.738281 606.277344 607.71875 C 583.460938 629.542969 553.699219 640.554688 522.1875 639.664062 C 488.9375 638.722656 459.730469 622.847656 437.183594 599.125 C 422.289062 615.371094 405.828125 628.519531 384.433594 635.210938 C 353.449219 644.898438 323.535156 641.207031 295.042969 626.292969 C 265.949219 609.621094 248.871094 586.847656 238.152344 555.425781 C 234.984375 556.914062 231.871094 558.519531 228.699219 560 C 193.332031 576.527344 155.429688 578.695312 118.683594 565.238281 C 82.800781 552.097656 51.375 523.003906 35.351562 488.375 C 34.835938 487.261719 34.335938 486.140625 33.847656 485.015625 C 33.359375 483.890625 32.886719 482.761719 32.425781 481.625 C 31.96875 480.488281 31.523438 479.34375 31.089844 478.195312 C 30.660156 477.050781 30.242188 475.894531 29.839844 474.738281 C 29.4375 473.578125 29.046875 472.417969 28.675781 471.25 C 28.300781 470.082031 27.941406 468.910156 27.597656 467.734375 C 27.25 466.554688 26.921875 465.375 26.605469 464.191406 C 26.289062 463.007812 25.988281 461.816406 25.699219 460.625 C 25.414062 459.433594 25.140625 458.238281 24.882812 457.039062 C 24.625 455.839844 24.382812 454.636719 24.15625 453.433594 C 23.929688 452.226562 23.714844 451.019531 23.515625 449.8125 C 23.320312 448.601562 23.136719 447.386719 22.96875 446.171875 C 22.800781 444.960938 22.648438 443.742188 22.507812 442.523438 C 22.371094 441.304688 22.246094 440.085938 22.136719 438.863281 C 22.03125 437.644531 21.9375 436.421875 21.859375 435.195312 C 21.78125 433.972656 21.71875 432.75 21.671875 431.523438 C 21.621094 430.296875 21.589844 429.074219 21.574219 427.847656 C 21.554688 426.621094 21.550781 425.394531 21.566406 424.167969 C 21.578125 422.941406 21.605469 421.714844 21.648438 420.492188 C 21.691406 419.265625 21.75 418.042969 21.824219 416.816406 C 21.894531 415.59375 21.984375 414.371094 22.085938 413.148438 C 22.191406 411.925781 22.308594 410.707031 22.441406 409.488281 C 22.574219 408.265625 22.722656 407.050781 22.886719 405.835938 C 23.050781 404.621094 23.226562 403.40625 23.421875 402.195312 C 23.613281 400.984375 23.824219 399.777344 24.046875 398.570312 C 24.269531 397.367188 24.507812 396.164062 24.757812 394.960938 C 25.011719 393.761719 25.28125 392.566406 25.5625 391.371094 C 25.84375 390.179688 26.140625 388.988281 26.453125 387.804688 C 26.765625 386.617188 27.089844 385.4375 27.429688 384.257812 C 27.769531 383.082031 28.125 381.90625 28.496094 380.738281 C 28.863281 379.570312 29.246094 378.402344 29.644531 377.246094 C 30.042969 376.085938 30.457031 374.929688 30.882812 373.78125 C 40.902344 346.699219 59.199219 321.039062 82.832031 304.253906 C 93.175781 296.902344 104.492188 291.144531 115.996094 285.859375 C 115.890625 282.707031 115.832031 279.558594 115.820312 276.402344 C 115.800781 264.554688 116.445312 252.707031 118.648438 241.042969 C 119.027344 239.113281 119.441406 237.191406 119.886719 235.277344 C 120.335938 233.367188 120.820312 231.460938 121.339844 229.566406 C 121.859375 227.667969 122.410156 225.785156 123 223.910156 C 123.585938 222.035156 124.210938 220.171875 124.867188 218.320312 C 125.523438 216.46875 126.214844 214.628906 126.941406 212.800781 C 127.664062 210.972656 128.421875 209.160156 129.214844 207.363281 C 130.003906 205.5625 130.832031 203.78125 131.6875 202.011719 C 132.542969 200.246094 133.433594 198.492188 134.355469 196.757812 C 135.277344 195.023438 136.230469 193.304688 137.21875 191.601562 C 138.203125 189.902344 139.21875 188.222656 140.265625 186.558594 C 141.3125 184.894531 142.390625 183.253906 143.5 181.628906 C 144.609375 180.007812 145.746094 178.40625 146.914062 176.824219 C 148.078125 175.242188 149.273438 173.683594 150.5 172.148438 C 151.722656 170.609375 152.976562 169.09375 154.257812 167.605469 C 155.535156 166.113281 156.84375 164.648438 158.179688 163.203125 C 159.515625 161.761719 160.875 160.34375 162.261719 158.953125 C 190.359375 130.9375 231.3125 114.234375 270.980469 114.28125 C 315.800781 114.335938 354.371094 131.292969 385.925781 162.9375 C 390.269531 158.238281 394.070312 153.058594 398.464844 148.378906 C 399.1875 147.609375 399.921875 146.84375 400.660156 146.089844 C 401.402344 145.335938 402.148438 144.585938 402.902344 143.847656 C 403.660156 143.105469 404.421875 142.375 405.191406 141.648438 C 405.960938 140.921875 406.738281 140.207031 407.519531 139.496094 C 408.304688 138.785156 409.09375 138.082031 409.894531 137.390625 C 410.691406 136.695312 411.496094 136.007812 412.304688 135.332031 C 413.117188 134.652344 413.9375 133.984375 414.761719 133.320312 C 415.585938 132.660156 416.414062 132.007812 417.253906 131.359375 C 418.089844 130.714844 418.9375 130.078125 419.785156 129.449219 C 420.636719 128.820312 421.492188 128.199219 422.355469 127.589844 C 423.21875 126.976562 424.085938 126.371094 424.960938 125.777344 C 425.835938 125.183594 426.714844 124.597656 427.601562 124.019531 C 428.488281 123.445312 429.378906 122.875 430.277344 122.316406 C 431.171875 121.757812 432.074219 121.207031 432.984375 120.664062 C 433.894531 120.125 434.804688 119.589844 435.726562 119.066406 C 436.644531 118.542969 437.566406 118.03125 438.496094 117.523438 C 439.425781 117.019531 440.359375 116.523438 441.300781 116.039062 C 442.238281 115.550781 443.179688 115.074219 444.128906 114.605469 C 445.078125 114.140625 446.03125 113.679688 446.988281 113.230469 C 447.945312 112.78125 448.90625 112.34375 449.875 111.914062 C 450.839844 111.484375 451.8125 111.0625 452.785156 110.652344 C 453.757812 110.242188 454.738281 109.839844 455.71875 109.449219 C 456.703125 109.058594 457.6875 108.675781 458.679688 108.304688 C 459.667969 107.933594 460.664062 107.570312 461.660156 107.21875 C 462.65625 106.867188 463.65625 106.527344 464.660156 106.195312 C 465.664062 105.863281 466.671875 105.539062 467.683594 105.226562 C 468.691406 104.914062 469.707031 104.613281 470.722656 104.320312 C 471.738281 104.03125 472.757812 103.75 473.78125 103.476562 C 474.800781 103.203125 475.824219 102.941406 476.851562 102.691406 C 477.878906 102.4375 478.910156 102.199219 479.941406 101.96875 C 480.972656 101.738281 482.007812 101.515625 483.042969 101.304688 C 484.082031 101.09375 485.117188 100.894531 486.160156 100.703125 C 495.664062 99.023438 505.140625 98.464844 514.773438 98.167969 Z M 514.773438 98.167969 " fill-opacity="1" fill-rule="nonzero"/></svg>