<svg xmlns="http://www.w3.org/2000/svg" xmlns:xlink="http://www.w3.org/1999/xlink" width="1080" zoomAndPan="magnify" viewBox="0 0 810 809.999993" height="1080" preserveAspectRatio="xMidYMid meet" version="1.0"><defs><clipPath id="c5adc762ed"><path d="M 404 17 L 772 17 L 772 115 L 404 115 Z M 404 17 " clip-rule="nonzero"/></clipPath><clipPath id="e28971a377"><path d="M 440 17 L 808 17 L 808 115 L 440 115 Z M 440 17 " clip-rule="nonzero"/></clipPath><clipPath id="1965c56844"><path d="M 404 40 L 625 40 L 625 115 L 404 115 Z M 404 40 " clip-rule="nonzero"/></clipPath><clipPath id="d569da4ab5"><path d="M 677 36 L 808 36 L 808 115 L 677 115 Z M 677 36 " clip-rule="nonzero"/></clipPath><clipPath id="1c17b66f91"><path d="M 404 36 L 536 36 L 536 115 L 404 115 Z M 404 36 " clip-rule="nonzero"/></clipPath><clipPath id="20ebfdb8bd"><path d="M 0 0.332031 L 407.597656 0.332031 L 407.597656 115 L 0 115 Z M 0 0.332031 " clip-rule="nonzero"/></clipPath><clipPath id="0f1cd5cfd3"><path d="M 38 17 L 406 17 L 406 115 L 38 115 Z M 38 17 " clip-rule="nonzero"/></clipPath><clipPath id="74f656df2d"><path d="M 2 17 L 370 17 L 370 115 L 2 115 Z M 2 17 " clip-rule="nonzero"/></clipPath><clipPath id="eedb2c1f0e"><path d="M 185 40 L 406 40 L 406 115 L 185 115 Z M 185 40 " clip-rule="nonzero"/></clipPath><clipPath id="b105ea51b5"><path d="M 2 36 L 133 36 L 133 115 L 2 115 Z M 2 36 " clip-rule="nonzero"/></clipPath><clipPath id="0f0b758e5a"><path d="M 274 36 L 406 36 L 406 115 L 274 115 Z M 274 36 " clip-rule="nonzero"/></clipPath><clipPath id="5404d2210e"><rect x="0" width="408" y="0" height="115"/></clipPath><clipPath id="d186e7bebd"><rect x="0" width="810" y="0" height="115"/></clipPath></defs><g transform="matrix(1, 0, 0, 1, 0, 695)"><g clip-path="url(#d186e7bebd)"><g clip-path="url(#c5adc762ed)"><path fill="#6db84f" d="M 404.332031 18.753906 C 404.332031 18.753906 642.40625 0.324219 771.246094 115.050781 L 404.332031 115.050781 Z M 404.332031 18.753906 " fill-opacity="1" fill-rule="evenodd"/></g><g clip-path="url(#e28971a377)"><path fill="#8dc945" d="M 807.84375 18.753906 C 807.84375 18.753906 569.773438 0.324219 440.933594 115.050781 L 807.84375 115.050781 Z M 807.84375 18.753906 " fill-opacity="1" fill-rule="evenodd"/></g><g clip-path="url(#1965c56844)"><path fill="#adde47" d="M 404.332031 40.582031 C 404.332031 40.582031 552.609375 38.6875 624.386719 115.050781 L 404.332031 115.050781 Z M 404.332031 40.582031 " fill-opacity="1" fill-rule="evenodd"/></g><g clip-path="url(#d569da4ab5)"><path fill="#4d8965" d="M 697.804688 115.050781 C 697.804688 115.050781 700.054688 88.753906 677.089844 81.9375 C 677.089844 81.9375 710.851562 85.957031 713.882812 108.34375 C 713.882812 108.34375 715.453125 75.011719 735.953125 66.128906 C 735.953125 66.128906 722.199219 91.972656 729.695312 109.203125 C 729.695312 109.203125 738.507812 102.519531 737.046875 90.625 C 737.046875 90.625 751.050781 96.945312 747.320312 110.113281 C 747.320312 110.113281 760.3125 91.710938 752.773438 75.230469 C 752.773438 75.230469 772.972656 91.367188 761.210938 115.050781 L 774.234375 115.050781 C 774.234375 115.050781 753.148438 91.671875 772.152344 58.851562 C 772.152344 58.851562 766.539062 87.726562 778.097656 96.578125 C 778.097656 96.578125 784.121094 83.570312 780.503906 70.082031 C 780.503906 70.082031 796.5 83.511719 789.148438 101.621094 C 789.148438 101.621094 809.675781 69.828125 786.941406 36.386719 C 786.941406 36.386719 807.9375 49.074219 807.84375 72.9375 L 807.84375 115.050781 Z M 697.804688 115.050781 " fill-opacity="1" fill-rule="evenodd"/></g><g clip-path="url(#1c17b66f91)"><path fill="#4d8965" d="M 514.371094 115.050781 C 514.371094 115.050781 512.121094 88.753906 535.085938 81.9375 C 535.085938 81.9375 501.324219 85.957031 498.289062 108.34375 C 498.289062 108.34375 496.722656 75.011719 476.222656 66.128906 C 476.222656 66.128906 489.976562 91.972656 482.480469 109.203125 C 482.480469 109.203125 473.667969 102.519531 475.125 90.625 C 475.125 90.625 461.125 96.945312 464.855469 110.113281 C 464.855469 110.113281 451.859375 91.710938 459.402344 75.230469 C 459.402344 75.230469 439.199219 91.367188 450.964844 115.050781 L 437.941406 115.050781 C 437.941406 115.050781 459.027344 91.671875 440.023438 58.851562 C 440.023438 58.851562 445.636719 87.726562 434.078125 96.578125 C 434.078125 96.578125 428.054688 83.570312 431.671875 70.082031 C 431.671875 70.082031 415.675781 83.511719 423.027344 101.621094 C 423.027344 101.621094 402.5 69.828125 425.234375 36.386719 C 425.234375 36.386719 404.238281 49.074219 404.332031 72.9375 L 404.332031 115.050781 Z M 514.371094 115.050781 " fill-opacity="1" fill-rule="evenodd"/></g><path fill="#4d8965" d="M 588.46875 54.148438 C 588.277344 53.902344 588.324219 53.542969 588.570312 53.355469 C 588.820312 53.164062 589.175781 53.210938 589.367188 53.457031 C 591.925781 56.785156 591.84375 56.796875 593.972656 60.445312 C 594.132812 60.71875 594.039062 61.066406 593.769531 61.222656 C 593.5 61.378906 593.152344 61.289062 592.996094 61.019531 C 590.902344 57.433594 590.980469 57.417969 588.46875 54.148438 Z M 588.46875 54.148438 " fill-opacity="1" fill-rule="evenodd"/><path fill="#4d8965" d="M 596.890625 60.257812 C 596.917969 60.570312 596.683594 60.84375 596.371094 60.867188 C 596.0625 60.894531 595.785156 60.660156 595.761719 60.347656 C 595.632812 58.761719 595.625 58.785156 595.632812 57.199219 C 595.632812 56.886719 595.886719 56.632812 596.203125 56.632812 C 596.515625 56.636719 596.765625 56.890625 596.765625 57.203125 C 596.757812 58.742188 596.765625 58.71875 596.890625 60.257812 Z M 596.890625 60.257812 " fill-opacity="1" fill-rule="evenodd"/><path fill="#4d8965" d="M 600.070312 58.414062 C 600.027344 58.722656 599.738281 58.941406 599.429688 58.898438 C 599.121094 58.855469 598.902344 58.570312 598.945312 58.257812 C 599.109375 57.066406 599.035156 56.199219 600.066406 53.257812 C 600.171875 52.964844 600.496094 52.808594 600.789062 52.914062 C 601.085938 53.015625 601.242188 53.339844 601.136719 53.636719 C 600.148438 56.441406 600.222656 57.273438 600.070312 58.414062 Z M 600.070312 58.414062 " fill-opacity="1" fill-rule="evenodd"/><path fill="#4d8965" d="M 618.300781 75.953125 C 618.125 75.695312 618.191406 75.34375 618.449219 75.167969 C 618.707031 74.992188 619.0625 75.058594 619.238281 75.316406 C 621.542969 78.707031 621.550781 78.644531 623.574219 82.214844 C 623.726562 82.488281 623.632812 82.835938 623.359375 82.988281 C 623.085938 83.144531 622.742188 83.046875 622.585938 82.773438 C 620.589844 79.246094 620.582031 79.304688 618.300781 75.953125 Z M 618.300781 75.953125 " fill-opacity="1" fill-rule="evenodd"/><path fill="#4d8965" d="M 624.878906 78.089844 C 624.785156 77.792969 624.949219 77.472656 625.25 77.378906 C 625.546875 77.285156 625.867188 77.453125 625.960938 77.753906 L 627.152344 81.578125 C 627.246094 81.875 627.082031 82.195312 626.78125 82.289062 C 626.484375 82.382812 626.164062 82.214844 626.074219 81.917969 Z M 624.878906 78.089844 " fill-opacity="1" fill-rule="evenodd"/><path fill="#4d8965" d="M 630.09375 81.109375 C 630.015625 81.410156 629.707031 81.59375 629.402344 81.519531 C 629.101562 81.441406 628.917969 81.132812 628.992188 80.828125 C 630.007812 76.839844 629.867188 76.839844 631.371094 73.050781 C 631.484375 72.761719 631.8125 72.617188 632.105469 72.734375 C 632.394531 72.847656 632.539062 73.179688 632.421875 73.46875 C 630.949219 77.191406 631.085938 77.191406 630.09375 81.109375 Z M 630.09375 81.109375 " fill-opacity="1" fill-rule="evenodd"/><path fill="#4d8965" d="M 652.542969 43.078125 C 652.289062 42.894531 652.230469 42.539062 652.414062 42.285156 C 652.597656 42.03125 652.949219 41.972656 653.203125 42.15625 C 656.46875 44.511719 656.816406 44.785156 658.558594 47.886719 C 658.710938 48.160156 658.617188 48.503906 658.34375 48.660156 C 658.070312 48.8125 657.722656 48.714844 657.570312 48.441406 C 655.9375 45.535156 655.601562 45.285156 652.542969 43.078125 Z M 652.542969 43.078125 " fill-opacity="1" fill-rule="evenodd"/><path fill="#4d8965" d="M 658.351562 43.929688 C 658.171875 43.671875 658.234375 43.320312 658.488281 43.140625 C 658.746094 42.957031 659.097656 43.019531 659.277344 43.277344 C 660.539062 45.066406 660.539062 45.035156 661.417969 47.058594 C 661.542969 47.34375 661.410156 47.679688 661.125 47.804688 C 660.839844 47.929688 660.503906 47.796875 660.378906 47.511719 C 659.546875 45.59375 659.546875 45.625 658.351562 43.929688 Z M 658.351562 43.929688 " fill-opacity="1" fill-rule="evenodd"/><path fill="#4d8965" d="M 663.667969 46.222656 C 663.65625 46.535156 663.394531 46.777344 663.082031 46.765625 C 662.769531 46.753906 662.523438 46.492188 662.535156 46.179688 C 662.679688 42.320312 662.773438 41.597656 664.039062 38.878906 C 664.171875 38.59375 664.507812 38.46875 664.792969 38.601562 C 665.074219 38.734375 665.199219 39.074219 665.066406 39.355469 C 663.875 41.914062 663.804688 42.597656 663.667969 46.222656 Z M 663.667969 46.222656 " fill-opacity="1" fill-rule="evenodd"/><path fill="#4d8965" d="M 691.199219 64.351562 C 690.9375 64.179688 690.867188 63.828125 691.039062 63.566406 C 691.210938 63.304688 691.5625 63.230469 691.824219 63.402344 C 693.550781 64.539062 695.054688 64.929688 697.957031 68.566406 C 698.152344 68.808594 698.113281 69.167969 697.871094 69.363281 C 697.625 69.558594 697.269531 69.519531 697.074219 69.273438 C 694.296875 65.800781 692.851562 65.4375 691.199219 64.351562 Z M 691.199219 64.351562 " fill-opacity="1" fill-rule="evenodd"/><path fill="#4d8965" d="M 696.933594 64.09375 C 696.769531 63.828125 696.855469 63.476562 697.125 63.316406 C 697.390625 63.152344 697.738281 63.242188 697.902344 63.507812 C 699.089844 65.476562 699.042969 65.453125 700.027344 67.5625 C 700.160156 67.84375 700.039062 68.183594 699.753906 68.316406 C 699.472656 68.445312 699.132812 68.324219 699 68.039062 C 698.042969 65.988281 698.085938 66.011719 696.933594 64.09375 Z M 696.933594 64.09375 " fill-opacity="1" fill-rule="evenodd"/><path fill="#4d8965" d="M 702.183594 66.652344 C 702.1875 66.964844 701.933594 67.222656 701.621094 67.226562 C 701.308594 67.226562 701.054688 66.976562 701.050781 66.664062 C 701.011719 61.867188 701.070312 61.292969 703.023438 57.070312 C 703.152344 56.785156 703.492188 56.660156 703.773438 56.792969 C 704.058594 56.921875 704.183594 57.261719 704.050781 57.542969 C 702.199219 61.554688 702.144531 62.101562 702.183594 66.652344 Z M 702.183594 66.652344 " fill-opacity="1" fill-rule="evenodd"/><path fill="#4d8965" d="M 721.082031 39.628906 C 720.820312 39.457031 720.75 39.105469 720.921875 38.84375 C 721.09375 38.582031 721.445312 38.507812 721.707031 38.679688 C 725.378906 41.101562 725.285156 41.167969 728.640625 44.007812 C 728.882812 44.207031 728.910156 44.566406 728.710938 44.804688 C 728.507812 45.042969 728.152344 45.074219 727.910156 44.871094 C 724.605469 42.078125 724.695312 42.011719 721.082031 39.628906 Z M 721.082031 39.628906 " fill-opacity="1" fill-rule="evenodd"/><path fill="#4d8965" d="M 728.335938 40.460938 C 728.183594 40.1875 728.28125 39.84375 728.554688 39.691406 C 728.828125 39.539062 729.175781 39.636719 729.324219 39.910156 L 730.847656 42.648438 C 731 42.921875 730.902344 43.269531 730.628906 43.421875 C 730.355469 43.574219 730.011719 43.472656 729.859375 43.199219 Z M 728.335938 40.460938 " fill-opacity="1" fill-rule="evenodd"/><path fill="#4d8965" d="M 732.394531 37.519531 C 732.378906 37.207031 732.621094 36.9375 732.933594 36.925781 C 733.246094 36.910156 733.511719 37.148438 733.527344 37.464844 C 733.597656 38.882812 733.480469 38.867188 733.8125 43.007812 C 733.835938 43.320312 733.601562 43.59375 733.292969 43.617188 C 732.980469 43.644531 732.707031 43.410156 732.683594 43.097656 C 732.347656 38.933594 732.464844 38.949219 732.394531 37.519531 Z M 732.394531 37.519531 " fill-opacity="1" fill-rule="evenodd"/><path fill="#4d8965" d="M 756.957031 48.648438 C 756.730469 48.429688 756.71875 48.070312 756.9375 47.84375 C 757.152344 47.617188 757.507812 47.609375 757.738281 47.824219 C 759.75 49.734375 759.773438 49.65625 761.472656 51.898438 C 761.664062 52.148438 761.613281 52.503906 761.363281 52.695312 C 761.117188 52.882812 760.761719 52.832031 760.570312 52.585938 C 758.925781 50.417969 758.902344 50.496094 756.957031 48.648438 Z M 756.957031 48.648438 " fill-opacity="1" fill-rule="evenodd"/><path fill="#4d8965" d="M 761.34375 49.441406 C 761.195312 49.164062 761.296875 48.820312 761.570312 48.671875 C 761.847656 48.519531 762.191406 48.621094 762.339844 48.898438 L 763.578125 51.171875 C 763.730469 51.445312 763.628906 51.789062 763.355469 51.941406 C 763.078125 52.089844 762.734375 51.988281 762.585938 51.714844 Z M 761.34375 49.441406 " fill-opacity="1" fill-rule="evenodd"/><path fill="#4d8965" d="M 765.519531 51.777344 C 765.488281 52.089844 765.210938 52.316406 764.898438 52.285156 C 764.589844 52.253906 764.363281 51.972656 764.394531 51.664062 C 764.644531 49.210938 764.382812 48.414062 766.125 44.90625 C 766.261719 44.625 766.601562 44.511719 766.882812 44.652344 C 767.164062 44.789062 767.277344 45.128906 767.136719 45.410156 C 765.496094 48.714844 765.753906 49.464844 765.519531 51.777344 Z M 765.519531 51.777344 " fill-opacity="1" fill-rule="evenodd"/><path fill="#ccf56b" d="M 451.832031 57.179688 C 451.621094 56.949219 451.632812 56.589844 451.863281 56.378906 C 452.09375 56.164062 452.449219 56.179688 452.664062 56.40625 C 455.832031 59.832031 455.878906 59.757812 458.375 63.722656 C 458.542969 63.984375 458.464844 64.335938 458.199219 64.503906 C 457.933594 64.671875 457.585938 64.589844 457.417969 64.328125 C 454.976562 60.453125 454.929688 60.527344 451.832031 57.179688 Z M 451.832031 57.179688 " fill-opacity="1" fill-rule="evenodd"/><path fill="#ccf56b" d="M 457.804688 60.578125 C 457.699219 60.285156 457.847656 59.957031 458.144531 59.847656 C 458.4375 59.742188 458.761719 59.894531 458.871094 60.1875 L 460.472656 64.5625 C 460.582031 64.859375 460.429688 65.183594 460.136719 65.292969 C 459.84375 65.398438 459.519531 65.25 459.410156 64.957031 Z M 457.804688 60.578125 " fill-opacity="1" fill-rule="evenodd"/><path fill="#ccf56b" d="M 462.894531 64.953125 C 462.84375 65.261719 462.546875 65.46875 462.238281 65.414062 C 461.933594 65.359375 461.726562 65.066406 461.78125 64.757812 C 462.417969 61.097656 462.222656 61.03125 465.242188 56.171875 C 465.410156 55.90625 465.757812 55.824219 466.023438 55.988281 C 466.289062 56.152344 466.371094 56.503906 466.207031 56.769531 C 463.324219 61.402344 463.503906 61.464844 462.894531 64.953125 Z M 462.894531 64.953125 " fill-opacity="1" fill-rule="evenodd"/><path fill="#ccf56b" d="M 498.65625 75.886719 C 498.390625 75.726562 498.304688 75.378906 498.464844 75.109375 C 498.625 74.839844 498.976562 74.753906 499.242188 74.917969 C 502.308594 76.769531 502.90625 77.394531 505.140625 81.171875 C 505.300781 81.441406 505.210938 81.792969 504.941406 81.949219 C 504.675781 82.109375 504.324219 82.019531 504.167969 81.75 C 502.074219 78.214844 501.527344 77.621094 498.65625 75.886719 Z M 498.65625 75.886719 " fill-opacity="1" fill-rule="evenodd"/><path fill="#ccf56b" d="M 507.105469 81 C 507.152344 81.308594 506.941406 81.597656 506.632812 81.648438 C 506.324219 81.695312 506.035156 81.484375 505.984375 81.171875 C 505.683594 79.242188 505.746094 79.269531 505.871094 77.316406 C 505.890625 77.007812 506.160156 76.769531 506.472656 76.789062 C 506.78125 76.808594 507.019531 77.078125 507 77.390625 C 506.882812 79.21875 506.824219 79.191406 507.105469 81 Z M 507.105469 81 " fill-opacity="1" fill-rule="evenodd"/><path fill="#ccf56b" d="M 509.871094 80.578125 C 509.820312 80.886719 509.527344 81.097656 509.21875 81.042969 C 508.910156 80.992188 508.703125 80.703125 508.753906 80.390625 C 509.53125 75.699219 509.960938 74.679688 513.28125 70.773438 C 513.484375 70.535156 513.839844 70.507812 514.078125 70.710938 C 514.316406 70.914062 514.34375 71.269531 514.144531 71.507812 C 511.011719 75.191406 510.605469 76.152344 509.871094 80.578125 Z M 509.871094 80.578125 " fill-opacity="1" fill-rule="evenodd"/><path fill="#ccf56b" d="M 544.316406 98.710938 C 544.105469 98.476562 544.125 98.121094 544.359375 97.910156 C 544.589844 97.699219 544.949219 97.71875 545.15625 97.953125 C 546.171875 99.078125 546.433594 99.269531 547.96875 101.769531 C 548.132812 102.035156 548.050781 102.386719 547.78125 102.550781 C 547.515625 102.714844 547.167969 102.628906 547.003906 102.363281 C 545.535156 99.96875 545.285156 99.789062 544.316406 98.710938 Z M 544.316406 98.710938 " fill-opacity="1" fill-rule="evenodd"/><path fill="#ccf56b" d="M 548.621094 99.644531 C 548.503906 99.351562 548.648438 99.023438 548.941406 98.910156 C 549.230469 98.792969 549.5625 98.9375 549.675781 99.230469 L 550.457031 101.226562 C 550.574219 101.515625 550.429688 101.847656 550.140625 101.960938 C 549.847656 102.074219 549.519531 101.933594 549.402344 101.640625 Z M 548.621094 99.644531 " fill-opacity="1" fill-rule="evenodd"/><path fill="#ccf56b" d="M 553.777344 95.355469 C 553.875 95.058594 554.199219 94.898438 554.496094 95 C 554.789062 95.097656 554.949219 95.421875 554.851562 95.71875 C 553.773438 98.914062 553.703125 98.898438 553.398438 102.644531 C 553.375 102.957031 553.101562 103.191406 552.789062 103.167969 C 552.476562 103.140625 552.242188 102.867188 552.269531 102.554688 C 552.582031 98.660156 552.65625 98.679688 553.777344 95.355469 Z M 553.777344 95.355469 " fill-opacity="1" fill-rule="evenodd"/><path fill="#4d8965" d="M 492.894531 24.605469 C 492.699219 24.363281 492.738281 24.003906 492.980469 23.808594 C 493.222656 23.613281 493.582031 23.652344 493.777344 23.894531 L 495.578125 26.132812 C 495.773438 26.378906 495.734375 26.734375 495.492188 26.929688 C 495.25 27.128906 494.890625 27.089844 494.695312 26.84375 Z M 492.894531 24.605469 " fill-opacity="1" fill-rule="evenodd"/><path fill="#4d8965" d="M 495.804688 25.125 C 495.667969 24.84375 495.789062 24.503906 496.070312 24.371094 C 496.351562 24.234375 496.691406 24.351562 496.828125 24.636719 L 497.28125 25.585938 C 497.417969 25.867188 497.296875 26.207031 497.015625 26.34375 C 496.734375 26.476562 496.394531 26.359375 496.261719 26.078125 Z M 495.804688 25.125 " fill-opacity="1" fill-rule="evenodd"/><path fill="#4d8965" d="M 498.5 23.5625 C 498.535156 23.253906 498.816406 23.03125 499.128906 23.066406 C 499.4375 23.101562 499.664062 23.382812 499.625 23.695312 L 499.394531 25.722656 C 499.355469 26.035156 499.074219 26.257812 498.765625 26.222656 C 498.453125 26.183594 498.230469 25.902344 498.265625 25.59375 Z M 498.5 23.5625 " fill-opacity="1" fill-rule="evenodd"/><path fill="#4d8965" d="M 510.476562 40.476562 C 510.417969 40.171875 510.621094 39.875 510.929688 39.816406 C 511.238281 39.761719 511.535156 39.964844 511.589844 40.273438 C 512.003906 42.519531 512.042969 42.476562 512.234375 44.742188 C 512.257812 45.054688 512.027344 45.328125 511.714844 45.355469 C 511.402344 45.382812 511.128906 45.148438 511.105469 44.835938 C 510.917969 42.628906 510.878906 42.671875 510.476562 40.476562 Z M 510.476562 40.476562 " fill-opacity="1" fill-rule="evenodd"/><path fill="#4d8965" d="M 513.117188 43.171875 C 513.140625 42.859375 513.410156 42.625 513.722656 42.644531 C 514.035156 42.667969 514.269531 42.9375 514.25 43.25 L 514.160156 44.539062 C 514.140625 44.851562 513.867188 45.085938 513.558594 45.066406 C 513.246094 45.042969 513.007812 44.773438 513.03125 44.460938 Z M 513.117188 43.171875 " fill-opacity="1" fill-rule="evenodd"/><path fill="#4d8965" d="M 516.394531 42.53125 C 516.496094 42.234375 516.816406 42.074219 517.113281 42.175781 C 517.410156 42.277344 517.570312 42.597656 517.46875 42.894531 L 516.320312 46.289062 C 516.222656 46.585938 515.898438 46.746094 515.605469 46.644531 C 515.308594 46.542969 515.148438 46.222656 515.25 45.925781 Z M 516.394531 42.53125 " fill-opacity="1" fill-rule="evenodd"/><path fill="#4d8965" d="M 527.859375 32.914062 C 527.757812 32.617188 527.917969 32.292969 528.214844 32.195312 C 528.511719 32.09375 528.832031 32.253906 528.933594 32.550781 C 529.558594 34.402344 529.515625 34.382812 529.96875 36.261719 C 530.042969 36.5625 529.855469 36.871094 529.550781 36.945312 C 529.246094 37.019531 528.941406 36.832031 528.867188 36.527344 C 528.425781 34.699219 528.46875 34.71875 527.859375 32.914062 Z M 527.859375 32.914062 " fill-opacity="1" fill-rule="evenodd"/><path fill="#4d8965" d="M 530.417969 34.789062 C 530.425781 34.476562 530.6875 34.226562 531 34.238281 C 531.3125 34.246094 531.558594 34.503906 531.550781 34.820312 L 531.539062 35.273438 C 531.53125 35.585938 531.269531 35.832031 530.957031 35.824219 C 530.644531 35.816406 530.398438 35.554688 530.40625 35.242188 Z M 530.417969 34.789062 " fill-opacity="1" fill-rule="evenodd"/><path fill="#4d8965" d="M 533.625 33.363281 C 533.734375 33.070312 534.058594 32.921875 534.355469 33.027344 C 534.648438 33.136719 534.796875 33.460938 534.691406 33.753906 C 534.167969 35.171875 534.179688 35.136719 533.886719 36.648438 C 533.828125 36.957031 533.53125 37.160156 533.222656 37.097656 C 532.917969 37.039062 532.714844 36.742188 532.773438 36.433594 C 533.085938 34.832031 533.074219 34.867188 533.625 33.363281 Z M 533.625 33.363281 " fill-opacity="1" fill-rule="evenodd"/><path fill="#4d8965" d="M 553.367188 39.160156 C 553.195312 38.898438 553.269531 38.546875 553.527344 38.375 C 553.789062 38.203125 554.140625 38.273438 554.3125 38.535156 C 555.355469 40.117188 555.433594 40.035156 556.175781 41.792969 C 556.296875 42.082031 556.160156 42.414062 555.871094 42.535156 C 555.585938 42.65625 555.253906 42.523438 555.128906 42.234375 C 554.429688 40.574219 554.351562 40.652344 553.367188 39.160156 Z M 553.367188 39.160156 " fill-opacity="1" fill-rule="evenodd"/><path fill="#4d8965" d="M 556.570312 40.121094 C 556.542969 39.808594 556.777344 39.535156 557.089844 39.511719 C 557.402344 39.488281 557.675781 39.71875 557.699219 40.03125 L 557.816406 41.515625 C 557.839844 41.828125 557.605469 42.101562 557.296875 42.128906 C 556.984375 42.152344 556.710938 41.917969 556.6875 41.605469 Z M 556.570312 40.121094 " fill-opacity="1" fill-rule="evenodd"/><path fill="#4d8965" d="M 559.429688 38.179688 C 559.507812 37.878906 559.816406 37.695312 560.117188 37.773438 C 560.421875 37.851562 560.605469 38.160156 560.527344 38.464844 C 560.101562 40.101562 560.136719 40.078125 560.019531 41.757812 C 559.996094 42.066406 559.726562 42.304688 559.414062 42.28125 C 559.101562 42.257812 558.867188 41.988281 558.886719 41.675781 C 559.011719 39.894531 558.980469 39.917969 559.429688 38.179688 Z M 559.429688 38.179688 " fill-opacity="1" fill-rule="evenodd"/><path fill="#4d8965" d="M 459.957031 31.28125 C 459.800781 31.011719 459.890625 30.664062 460.160156 30.507812 C 460.433594 30.347656 460.777344 30.441406 460.9375 30.710938 C 462.527344 33.449219 462.574219 33.347656 463.957031 36.199219 C 464.09375 36.480469 463.976562 36.820312 463.695312 36.957031 C 463.414062 37.09375 463.074219 36.976562 462.9375 36.695312 C 461.574219 33.882812 461.527344 33.980469 459.957031 31.28125 Z M 459.957031 31.28125 " fill-opacity="1" fill-rule="evenodd"/><path fill="#4d8965" d="M 463.972656 32.828125 C 463.863281 32.535156 464.015625 32.207031 464.308594 32.097656 C 464.601562 31.992188 464.925781 32.140625 465.035156 32.433594 L 465.804688 34.519531 C 465.914062 34.8125 465.761719 35.136719 465.46875 35.246094 C 465.175781 35.355469 464.851562 35.203125 464.742188 34.910156 Z M 463.972656 32.828125 " fill-opacity="1" fill-rule="evenodd"/><path fill="#4d8965" d="M 467.921875 31.199219 C 467.949219 30.886719 468.222656 30.65625 468.535156 30.679688 C 468.847656 30.707031 469.078125 30.980469 469.054688 31.292969 L 468.679688 35.839844 C 468.65625 36.152344 468.378906 36.386719 468.070312 36.359375 C 467.757812 36.335938 467.523438 36.0625 467.550781 35.75 Z M 467.921875 31.199219 " fill-opacity="1" fill-rule="evenodd"/><path fill="#4d8965" d="M 425.839844 25.792969 C 425.730469 25.5 425.878906 25.175781 426.171875 25.0625 C 426.460938 24.953125 426.789062 25.101562 426.898438 25.394531 L 428.535156 29.734375 C 428.644531 30.027344 428.496094 30.355469 428.203125 30.464844 C 427.910156 30.578125 427.582031 30.429688 427.472656 30.136719 Z M 425.839844 25.792969 " fill-opacity="1" fill-rule="evenodd"/><path fill="#4d8965" d="M 428.636719 27.902344 C 428.554688 27.601562 428.734375 27.289062 429.035156 27.207031 C 429.335938 27.125 429.648438 27.304688 429.730469 27.605469 L 430.351562 29.898438 C 430.433594 30.199219 430.253906 30.511719 429.953125 30.59375 C 429.648438 30.675781 429.339844 30.496094 429.257812 30.195312 Z M 428.636719 27.902344 " fill-opacity="1" fill-rule="evenodd"/><path fill="#4d8965" d="M 433.136719 26.816406 C 433.222656 26.515625 433.535156 26.339844 433.835938 26.425781 C 434.136719 26.507812 434.3125 26.824219 434.226562 27.125 L 433.230469 30.675781 C 433.144531 30.976562 432.832031 31.152344 432.53125 31.070312 C 432.230469 30.984375 432.054688 30.671875 432.140625 30.367188 Z M 433.136719 26.816406 " fill-opacity="1" fill-rule="evenodd"/><path fill="#4d8965" d="M 440.722656 33.15625 C 440.609375 32.863281 440.757812 32.535156 441.046875 32.425781 C 441.339844 32.3125 441.667969 32.457031 441.78125 32.75 L 441.980469 33.273438 C 442.09375 33.566406 441.945312 33.894531 441.652344 34.007812 C 441.363281 34.117188 441.035156 33.972656 440.921875 33.679688 Z M 440.722656 33.15625 " fill-opacity="1" fill-rule="evenodd"/><path fill="#4d8965" d="M 443.257812 34.507812 C 443.234375 34.195312 443.46875 33.925781 443.78125 33.902344 C 444.09375 33.878906 444.367188 34.113281 444.386719 34.425781 L 444.484375 35.769531 C 444.507812 36.082031 444.273438 36.355469 443.960938 36.375 C 443.648438 36.398438 443.378906 36.164062 443.355469 35.851562 Z M 443.257812 34.507812 " fill-opacity="1" fill-rule="evenodd"/><path fill="#4d8965" d="M 622.121094 54.191406 C 621.808594 54.226562 621.527344 54 621.496094 53.6875 C 621.460938 53.378906 621.683594 53.097656 621.996094 53.0625 L 623.691406 52.875 C 624.003906 52.84375 624.285156 53.066406 624.316406 53.378906 C 624.351562 53.691406 624.125 53.96875 623.816406 54.003906 Z M 622.121094 54.191406 " fill-opacity="1" fill-rule="evenodd"/><path fill="#4d8965" d="M 625.066406 55.84375 C 624.753906 55.863281 624.484375 55.625 624.464844 55.3125 C 624.445312 55 624.683594 54.730469 624.996094 54.714844 L 632.800781 54.242188 C 633.113281 54.222656 633.382812 54.460938 633.398438 54.773438 C 633.417969 55.085938 633.179688 55.355469 632.867188 55.371094 Z M 625.066406 55.84375 " fill-opacity="1" fill-rule="evenodd"/><path fill="#4d8965" d="M 654.875 87.234375 C 654.566406 87.203125 654.335938 86.929688 654.363281 86.617188 C 654.394531 86.304688 654.667969 86.074219 654.980469 86.105469 L 655.914062 86.191406 C 656.226562 86.21875 656.457031 86.496094 656.425781 86.808594 C 656.398438 87.117188 656.121094 87.347656 655.8125 87.320312 Z M 654.875 87.234375 " fill-opacity="1" fill-rule="evenodd"/><path fill="#4d8965" d="M 652.59375 89.183594 C 652.285156 89.15625 652.050781 88.886719 652.074219 88.574219 C 652.097656 88.261719 652.371094 88.027344 652.683594 88.050781 L 660.890625 88.6875 C 661.199219 88.710938 661.433594 88.984375 661.410156 89.296875 C 661.386719 89.609375 661.113281 89.839844 660.800781 89.816406 Z M 652.59375 89.183594 " fill-opacity="1" fill-rule="evenodd"/><path fill="#ccf56b" d="M 567.449219 97.734375 C 567.535156 97.683594 567.675781 97.789062 567.839844 98.269531 L 567.851562 97.417969 L 567.941406 97.421875 L 567.925781 98.554688 C 567.914062 98.554688 567.90625 98.554688 567.894531 98.554688 L 567.835938 98.550781 L 567.835938 98.546875 C 567.835938 98.546875 567.835938 98.546875 567.832031 98.546875 C 567.835938 98.546875 567.835938 98.550781 567.835938 98.550781 C 567.523438 98.550781 567.269531 98.296875 567.269531 97.984375 C 567.269531 97.820312 567.339844 97.671875 567.449219 97.734375 Z M 567.449219 97.734375 " fill-opacity="1" fill-rule="evenodd"/><path fill="#ccf56b" d="M 567.078125 100.234375 C 566.765625 100.222656 566.519531 99.960938 566.53125 99.648438 C 566.539062 99.335938 566.800781 99.089844 567.113281 99.101562 C 570.808594 99.214844 570.738281 99.175781 574.386719 99.371094 C 574.699219 99.390625 574.941406 99.65625 574.921875 99.96875 C 574.90625 100.28125 574.636719 100.523438 574.324219 100.503906 C 570.691406 100.308594 570.757812 100.347656 567.078125 100.234375 Z M 567.078125 100.234375 " fill-opacity="1" fill-rule="evenodd"/><path fill="#ccf56b" d="M 488.644531 60.277344 C 488.332031 60.265625 488.089844 60 488.101562 59.6875 C 488.113281 59.375 488.375 59.132812 488.6875 59.144531 L 490.628906 59.21875 C 490.941406 59.230469 491.183594 59.492188 491.171875 59.804688 C 491.160156 60.117188 490.898438 60.363281 490.585938 60.351562 Z M 488.644531 60.277344 " fill-opacity="1" fill-rule="evenodd"/><path fill="#ccf56b" d="M 489.722656 61.84375 C 489.410156 61.847656 489.152344 61.597656 489.148438 61.285156 C 489.144531 60.972656 489.394531 60.714844 489.707031 60.710938 C 492.558594 60.667969 492.507812 60.691406 495.359375 60.738281 C 495.671875 60.742188 495.921875 61 495.917969 61.3125 C 495.914062 61.625 495.65625 61.875 495.34375 61.871094 C 492.507812 61.828125 492.554688 61.800781 489.722656 61.84375 Z M 489.722656 61.84375 " fill-opacity="1" fill-rule="evenodd"/><path fill="#4d8965" d="M 696.136719 42.582031 C 695.824219 42.574219 695.578125 42.3125 695.585938 42 C 695.59375 41.6875 695.855469 41.441406 696.167969 41.449219 L 699.230469 41.535156 C 699.542969 41.542969 699.789062 41.804688 699.777344 42.117188 C 699.769531 42.433594 699.507812 42.679688 699.195312 42.671875 Z M 696.136719 42.582031 " fill-opacity="1" fill-rule="evenodd"/><path fill="#4d8965" d="M 702.226562 42.757812 C 701.914062 42.730469 701.679688 42.457031 701.707031 42.144531 C 701.734375 41.835938 702.007812 41.601562 702.320312 41.628906 L 705.339844 41.878906 C 705.652344 41.90625 705.882812 42.179688 705.859375 42.492188 C 705.832031 42.804688 705.558594 43.035156 705.246094 43.007812 Z M 702.226562 42.757812 " fill-opacity="1" fill-rule="evenodd"/><path fill="#4d8965" d="M 755.1875 31.644531 C 754.878906 31.613281 754.652344 31.332031 754.683594 31.023438 C 754.714844 30.710938 754.992188 30.484375 755.304688 30.515625 L 759.832031 30.976562 C 760.144531 31.007812 760.371094 31.289062 760.339844 31.597656 C 760.308594 31.910156 760.03125 32.136719 759.71875 32.105469 Z M 755.1875 31.644531 " fill-opacity="1" fill-rule="evenodd"/><path fill="#4d8965" d="M 758.230469 29.324219 C 757.917969 29.292969 757.695312 29.011719 757.726562 28.703125 C 757.761719 28.390625 758.039062 28.164062 758.351562 28.199219 L 769.089844 29.347656 C 769.398438 29.382812 769.625 29.660156 769.59375 29.972656 C 769.558594 30.285156 769.277344 30.511719 768.96875 30.476562 Z M 758.230469 29.324219 " fill-opacity="1" fill-rule="evenodd"/><g clip-path="url(#20ebfdb8bd)"><g transform="matrix(1, 0, 0, 1, 0, 0)"><g clip-path="url(#5404d2210e)"><g clip-path="url(#0f1cd5cfd3)"><path fill="#6db84f" d="M 405.660156 18.753906 C 405.660156 18.753906 167.585938 0.324219 38.746094 115.050781 L 405.660156 115.050781 Z M 405.660156 18.753906 " fill-opacity="1" fill-rule="evenodd"/></g><g clip-path="url(#74f656df2d)"><path fill="#8dc945" d="M 2.148438 18.753906 C 2.148438 18.753906 240.222656 0.324219 369.0625 115.050781 L 2.148438 115.050781 Z M 2.148438 18.753906 " fill-opacity="1" fill-rule="evenodd"/></g><g clip-path="url(#eedb2c1f0e)"><path fill="#adde47" d="M 405.660156 40.582031 C 405.660156 40.582031 257.382812 38.6875 185.605469 115.050781 L 405.660156 115.050781 Z M 405.660156 40.582031 " fill-opacity="1" fill-rule="evenodd"/></g><g clip-path="url(#b105ea51b5)"><path fill="#4d8965" d="M 112.1875 115.050781 C 112.1875 115.050781 109.9375 88.753906 132.902344 81.9375 C 132.902344 81.9375 99.144531 85.957031 96.109375 108.34375 C 96.109375 108.34375 94.539062 75.011719 74.039062 66.128906 C 74.039062 66.128906 87.792969 91.972656 80.296875 109.203125 C 80.296875 109.203125 71.484375 102.519531 72.945312 90.625 C 72.945312 90.625 58.945312 96.945312 62.671875 110.113281 C 62.671875 110.113281 49.679688 91.710938 57.21875 75.230469 C 57.21875 75.230469 37.019531 91.367188 48.78125 115.050781 L 35.757812 115.050781 C 35.757812 115.050781 56.84375 91.671875 37.839844 58.851562 C 37.839844 58.851562 43.453125 87.726562 31.894531 96.578125 C 31.894531 96.578125 25.871094 83.570312 29.492188 70.082031 C 29.492188 70.082031 13.492188 83.511719 20.84375 101.621094 C 20.84375 101.621094 0.316406 69.828125 23.050781 36.386719 C 23.050781 36.386719 2.054688 49.074219 2.152344 72.9375 L 2.152344 115.050781 Z M 112.1875 115.050781 " fill-opacity="1" fill-rule="evenodd"/></g><g clip-path="url(#0f0b758e5a)"><path fill="#4d8965" d="M 295.621094 115.050781 C 295.621094 115.050781 297.875 88.753906 274.90625 81.9375 C 274.90625 81.9375 308.667969 85.957031 311.703125 108.34375 C 311.703125 108.34375 313.269531 75.011719 333.773438 66.128906 C 333.773438 66.128906 320.019531 91.972656 327.511719 109.203125 C 327.511719 109.203125 336.328125 102.519531 334.867188 90.625 C 334.867188 90.625 348.867188 96.945312 345.140625 110.113281 C 345.140625 110.113281 358.132812 91.710938 350.59375 75.230469 C 350.59375 75.230469 370.792969 91.367188 359.027344 115.050781 L 372.050781 115.050781 C 372.050781 115.050781 350.96875 91.671875 369.972656 58.851562 C 369.972656 58.851562 364.355469 87.726562 375.914062 96.578125 C 375.914062 96.578125 381.9375 83.570312 378.320312 70.082031 C 378.320312 70.082031 394.316406 83.511719 386.964844 101.621094 C 386.964844 101.621094 407.496094 69.828125 384.757812 36.386719 C 384.757812 36.386719 405.753906 49.074219 405.660156 72.9375 L 405.660156 115.050781 Z M 295.621094 115.050781 " fill-opacity="1" fill-rule="evenodd"/></g><path fill="#4d8965" d="M 221.523438 54.148438 C 221.714844 53.902344 221.667969 53.542969 221.421875 53.355469 C 221.171875 53.164062 220.816406 53.210938 220.625 53.457031 C 218.070312 56.785156 218.152344 56.796875 216.019531 60.445312 C 215.863281 60.71875 215.953125 61.066406 216.222656 61.222656 C 216.492188 61.378906 216.839844 61.289062 216.996094 61.019531 C 219.09375 57.433594 219.011719 57.417969 221.523438 54.148438 Z M 221.523438 54.148438 " fill-opacity="1" fill-rule="evenodd"/><path fill="#4d8965" d="M 213.101562 60.257812 C 213.078125 60.570312 213.308594 60.84375 213.621094 60.867188 C 213.933594 60.894531 214.207031 60.660156 214.230469 60.347656 C 214.363281 58.761719 214.367188 58.785156 214.359375 57.199219 C 214.359375 56.886719 214.105469 56.632812 213.792969 56.632812 C 213.480469 56.636719 213.226562 56.890625 213.226562 57.203125 C 213.234375 58.742188 213.226562 58.71875 213.101562 60.257812 Z M 213.101562 60.257812 " fill-opacity="1" fill-rule="evenodd"/><path fill="#4d8965" d="M 209.925781 58.414062 C 209.96875 58.722656 210.253906 58.941406 210.5625 58.898438 C 210.871094 58.855469 211.089844 58.570312 211.046875 58.257812 C 210.882812 57.066406 210.957031 56.199219 209.925781 53.257812 C 209.820312 52.964844 209.496094 52.808594 209.203125 52.914062 C 208.90625 53.015625 208.753906 53.339844 208.855469 53.636719 C 209.84375 56.441406 209.769531 57.273438 209.925781 58.414062 Z M 209.925781 58.414062 " fill-opacity="1" fill-rule="evenodd"/><path fill="#4d8965" d="M 191.691406 75.953125 C 191.867188 75.695312 191.800781 75.34375 191.542969 75.167969 C 191.285156 74.992188 190.929688 75.058594 190.753906 75.316406 C 188.449219 78.707031 188.441406 78.644531 186.421875 82.214844 C 186.265625 82.488281 186.363281 82.835938 186.632812 82.988281 C 186.90625 83.144531 187.25 83.046875 187.40625 82.773438 C 189.402344 79.246094 189.414062 79.304688 191.691406 75.953125 Z M 191.691406 75.953125 " fill-opacity="1" fill-rule="evenodd"/><path fill="#4d8965" d="M 185.117188 78.089844 C 185.207031 77.792969 185.042969 77.472656 184.742188 77.378906 C 184.445312 77.285156 184.128906 77.453125 184.035156 77.753906 L 182.839844 81.578125 C 182.746094 81.875 182.914062 82.195312 183.210938 82.289062 C 183.507812 82.382812 183.828125 82.214844 183.921875 81.917969 Z M 185.117188 78.089844 " fill-opacity="1" fill-rule="evenodd"/><path fill="#4d8965" d="M 179.902344 81.109375 C 179.976562 81.410156 180.285156 81.59375 180.589844 81.519531 C 180.894531 81.441406 181.078125 81.132812 181 80.828125 C 179.988281 76.839844 180.125 76.839844 178.625 73.050781 C 178.507812 72.761719 178.179688 72.617188 177.886719 72.734375 C 177.597656 72.847656 177.453125 73.179688 177.570312 73.46875 C 179.042969 77.191406 178.90625 77.191406 179.902344 81.109375 Z M 179.902344 81.109375 " fill-opacity="1" fill-rule="evenodd"/><path fill="#4d8965" d="M 157.453125 43.078125 C 157.707031 42.894531 157.761719 42.539062 157.582031 42.285156 C 157.398438 42.03125 157.042969 41.972656 156.789062 42.15625 C 153.527344 44.511719 153.175781 44.785156 151.433594 47.886719 C 151.28125 48.160156 151.378906 48.503906 151.648438 48.660156 C 151.921875 48.8125 152.269531 48.714844 152.421875 48.441406 C 154.054688 45.535156 154.390625 45.285156 157.453125 43.078125 Z M 157.453125 43.078125 " fill-opacity="1" fill-rule="evenodd"/><path fill="#4d8965" d="M 151.640625 43.929688 C 151.820312 43.671875 151.757812 43.320312 151.503906 43.140625 C 151.246094 42.957031 150.894531 43.019531 150.714844 43.277344 C 149.453125 45.066406 149.453125 45.035156 148.574219 47.058594 C 148.449219 47.34375 148.582031 47.679688 148.867188 47.804688 C 149.15625 47.929688 149.488281 47.796875 149.613281 47.511719 C 150.445312 45.59375 150.449219 45.625 151.640625 43.929688 Z M 151.640625 43.929688 " fill-opacity="1" fill-rule="evenodd"/><path fill="#4d8965" d="M 146.324219 46.222656 C 146.335938 46.535156 146.601562 46.777344 146.914062 46.765625 C 147.226562 46.753906 147.46875 46.492188 147.457031 46.179688 C 147.3125 42.320312 147.222656 41.597656 145.953125 38.878906 C 145.820312 38.59375 145.484375 38.46875 145.203125 38.601562 C 144.917969 38.734375 144.796875 39.074219 144.925781 39.355469 C 146.117188 41.914062 146.1875 42.597656 146.324219 46.222656 Z M 146.324219 46.222656 " fill-opacity="1" fill-rule="evenodd"/><path fill="#4d8965" d="M 118.792969 64.351562 C 119.054688 64.179688 119.125 63.828125 118.953125 63.566406 C 118.78125 63.304688 118.429688 63.230469 118.167969 63.402344 C 116.441406 64.539062 114.9375 64.929688 112.035156 68.566406 C 111.839844 68.808594 111.878906 69.167969 112.121094 69.363281 C 112.367188 69.558594 112.722656 69.519531 112.917969 69.273438 C 115.695312 65.800781 117.140625 65.4375 118.792969 64.351562 Z M 118.792969 64.351562 " fill-opacity="1" fill-rule="evenodd"/><path fill="#4d8965" d="M 113.0625 64.09375 C 113.222656 63.828125 113.136719 63.476562 112.871094 63.316406 C 112.601562 63.152344 112.253906 63.242188 112.089844 63.507812 C 110.90625 65.476562 110.949219 65.453125 109.964844 67.5625 C 109.832031 67.84375 109.957031 68.183594 110.238281 68.316406 C 110.523438 68.445312 110.859375 68.324219 110.992188 68.039062 C 111.949219 65.988281 111.90625 66.011719 113.0625 64.09375 Z M 113.0625 64.09375 " fill-opacity="1" fill-rule="evenodd"/><path fill="#4d8965" d="M 107.808594 66.652344 C 107.804688 66.964844 108.058594 67.222656 108.371094 67.226562 C 108.683594 67.226562 108.941406 66.976562 108.941406 66.664062 C 108.980469 61.867188 108.921875 61.292969 106.972656 57.070312 C 106.839844 56.785156 106.503906 56.660156 106.21875 56.792969 C 105.933594 56.921875 105.8125 57.261719 105.941406 57.542969 C 107.796875 61.554688 107.847656 62.101562 107.808594 66.652344 Z M 107.808594 66.652344 " fill-opacity="1" fill-rule="evenodd"/><path fill="#4d8965" d="M 88.910156 39.628906 C 89.171875 39.457031 89.242188 39.105469 89.070312 38.84375 C 88.898438 38.582031 88.546875 38.507812 88.289062 38.679688 C 84.617188 41.101562 84.707031 41.167969 81.351562 44.007812 C 81.113281 44.207031 81.082031 44.566406 81.285156 44.804688 C 81.484375 45.042969 81.84375 45.074219 82.082031 44.871094 C 85.386719 42.078125 85.296875 42.011719 88.910156 39.628906 Z M 88.910156 39.628906 " fill-opacity="1" fill-rule="evenodd"/><path fill="#4d8965" d="M 81.65625 40.460938 C 81.808594 40.1875 81.710938 39.84375 81.4375 39.691406 C 81.164062 39.539062 80.820312 39.636719 80.667969 39.910156 L 79.144531 42.648438 C 78.992188 42.921875 79.089844 43.269531 79.363281 43.421875 C 79.636719 43.574219 79.984375 43.472656 80.136719 43.199219 Z M 81.65625 40.460938 " fill-opacity="1" fill-rule="evenodd"/><path fill="#4d8965" d="M 77.597656 37.519531 C 77.613281 37.207031 77.371094 36.9375 77.058594 36.925781 C 76.746094 36.910156 76.480469 37.148438 76.464844 37.464844 C 76.398438 38.882812 76.511719 38.867188 76.183594 43.007812 C 76.15625 43.320312 76.390625 43.59375 76.703125 43.617188 C 77.011719 43.644531 77.285156 43.410156 77.3125 43.097656 C 77.644531 38.933594 77.527344 38.949219 77.597656 37.519531 Z M 77.597656 37.519531 " fill-opacity="1" fill-rule="evenodd"/><path fill="#4d8965" d="M 53.035156 48.648438 C 53.261719 48.429688 53.273438 48.070312 53.058594 47.84375 C 52.84375 47.617188 52.484375 47.609375 52.257812 47.824219 C 50.242188 49.734375 50.21875 49.65625 48.519531 51.898438 C 48.332031 52.148438 48.378906 52.503906 48.628906 52.695312 C 48.878906 52.882812 49.234375 52.832031 49.421875 52.585938 C 51.066406 50.417969 51.089844 50.496094 53.035156 48.648438 Z M 53.035156 48.648438 " fill-opacity="1" fill-rule="evenodd"/><path fill="#4d8965" d="M 48.648438 49.441406 C 48.796875 49.164062 48.695312 48.820312 48.421875 48.671875 C 48.148438 48.519531 47.800781 48.621094 47.652344 48.898438 L 46.414062 51.171875 C 46.261719 51.445312 46.363281 51.789062 46.640625 51.941406 C 46.914062 52.089844 47.257812 51.988281 47.40625 51.714844 Z M 48.648438 49.441406 " fill-opacity="1" fill-rule="evenodd"/><path fill="#4d8965" d="M 44.472656 51.777344 C 44.503906 52.089844 44.78125 52.316406 45.09375 52.285156 C 45.40625 52.253906 45.632812 51.972656 45.601562 51.664062 C 45.351562 49.210938 45.609375 48.414062 43.871094 44.90625 C 43.730469 44.625 43.390625 44.511719 43.109375 44.652344 C 42.828125 44.789062 42.714844 45.128906 42.855469 45.410156 C 44.496094 48.714844 44.238281 49.464844 44.472656 51.777344 Z M 44.472656 51.777344 " fill-opacity="1" fill-rule="evenodd"/><path fill="#ccf56b" d="M 358.160156 57.179688 C 358.375 56.949219 358.359375 56.589844 358.128906 56.378906 C 357.902344 56.164062 357.542969 56.179688 357.328125 56.40625 C 354.160156 59.832031 354.113281 59.757812 351.617188 63.722656 C 351.449219 63.984375 351.53125 64.335938 351.792969 64.503906 C 352.058594 64.671875 352.410156 64.589844 352.574219 64.328125 C 355.015625 60.453125 355.0625 60.527344 358.160156 57.179688 Z M 358.160156 57.179688 " fill-opacity="1" fill-rule="evenodd"/><path fill="#ccf56b" d="M 352.1875 60.578125 C 352.296875 60.285156 352.144531 59.957031 351.851562 59.847656 C 351.558594 59.742188 351.230469 59.894531 351.125 60.1875 L 349.519531 64.5625 C 349.410156 64.859375 349.5625 65.183594 349.855469 65.292969 C 350.148438 65.398438 350.476562 65.25 350.582031 64.957031 Z M 352.1875 60.578125 " fill-opacity="1" fill-rule="evenodd"/><path fill="#ccf56b" d="M 347.097656 64.953125 C 347.152344 65.261719 347.445312 65.46875 347.753906 65.414062 C 348.0625 65.359375 348.265625 65.066406 348.214844 64.757812 C 347.574219 61.097656 347.769531 61.03125 344.75 56.171875 C 344.585938 55.90625 344.234375 55.824219 343.96875 55.988281 C 343.703125 56.152344 343.621094 56.503906 343.789062 56.769531 C 346.667969 61.402344 346.488281 61.464844 347.097656 64.953125 Z M 347.097656 64.953125 " fill-opacity="1" fill-rule="evenodd"/><path fill="#ccf56b" d="M 311.335938 75.886719 C 311.605469 75.726562 311.691406 75.378906 311.527344 75.109375 C 311.367188 74.839844 311.019531 74.753906 310.75 74.917969 C 307.683594 76.769531 307.085938 77.394531 304.851562 81.171875 C 304.691406 81.441406 304.78125 81.792969 305.050781 81.949219 C 305.320312 82.109375 305.667969 82.019531 305.828125 81.75 C 307.917969 78.214844 308.464844 77.621094 311.335938 75.886719 Z M 311.335938 75.886719 " fill-opacity="1" fill-rule="evenodd"/><path fill="#ccf56b" d="M 302.886719 81 C 302.839844 81.308594 303.050781 81.597656 303.359375 81.648438 C 303.667969 81.695312 303.960938 81.484375 304.007812 81.171875 C 304.308594 79.242188 304.25 79.269531 304.125 77.316406 C 304.105469 77.007812 303.832031 76.769531 303.523438 76.789062 C 303.210938 76.808594 302.972656 77.078125 302.992188 77.390625 C 303.109375 79.21875 303.167969 79.191406 302.886719 81 Z M 302.886719 81 " fill-opacity="1" fill-rule="evenodd"/><path fill="#ccf56b" d="M 300.121094 80.578125 C 300.171875 80.886719 300.464844 81.097656 300.773438 81.042969 C 301.082031 80.992188 301.289062 80.703125 301.238281 80.390625 C 300.460938 75.699219 300.03125 74.679688 296.714844 70.773438 C 296.511719 70.535156 296.152344 70.507812 295.914062 70.710938 C 295.675781 70.914062 295.648438 71.269531 295.851562 71.507812 C 298.980469 75.191406 299.386719 76.152344 300.121094 80.578125 Z M 300.121094 80.578125 " fill-opacity="1" fill-rule="evenodd"/><path fill="#ccf56b" d="M 265.679688 98.710938 C 265.886719 98.476562 265.867188 98.121094 265.636719 97.910156 C 265.402344 97.699219 265.042969 97.71875 264.835938 97.953125 C 263.820312 99.078125 263.558594 99.269531 262.023438 101.769531 C 261.859375 102.035156 261.945312 102.386719 262.210938 102.550781 C 262.476562 102.714844 262.824219 102.628906 262.988281 102.363281 C 264.457031 99.96875 264.707031 99.789062 265.679688 98.710938 Z M 265.679688 98.710938 " fill-opacity="1" fill-rule="evenodd"/><path fill="#ccf56b" d="M 261.371094 99.644531 C 261.488281 99.351562 261.34375 99.023438 261.050781 98.910156 C 260.761719 98.792969 260.433594 98.9375 260.316406 99.230469 L 259.535156 101.226562 C 259.417969 101.515625 259.5625 101.847656 259.855469 101.960938 C 260.144531 102.074219 260.472656 101.933594 260.589844 101.640625 Z M 261.371094 99.644531 " fill-opacity="1" fill-rule="evenodd"/><path fill="#ccf56b" d="M 256.214844 95.355469 C 256.117188 95.058594 255.796875 94.898438 255.5 95 C 255.203125 95.097656 255.042969 95.421875 255.140625 95.71875 C 256.21875 98.914062 256.292969 98.898438 256.59375 102.644531 C 256.621094 102.957031 256.894531 103.191406 257.203125 103.167969 C 257.515625 103.140625 257.75 102.867188 257.722656 102.554688 C 257.410156 98.660156 257.335938 98.679688 256.214844 95.355469 Z M 256.214844 95.355469 " fill-opacity="1" fill-rule="evenodd"/><path fill="#4d8965" d="M 317.097656 24.605469 C 317.292969 24.363281 317.257812 24.003906 317.011719 23.808594 C 316.769531 23.613281 316.410156 23.652344 316.214844 23.894531 L 314.414062 26.132812 C 314.21875 26.378906 314.257812 26.734375 314.5 26.929688 C 314.746094 27.128906 315.101562 27.089844 315.296875 26.84375 Z M 317.097656 24.605469 " fill-opacity="1" fill-rule="evenodd"/><path fill="#4d8965" d="M 314.1875 25.125 C 314.324219 24.84375 314.203125 24.503906 313.921875 24.371094 C 313.640625 24.234375 313.300781 24.351562 313.167969 24.636719 L 312.710938 25.585938 C 312.574219 25.867188 312.695312 26.207031 312.976562 26.34375 C 313.257812 26.476562 313.597656 26.359375 313.734375 26.078125 Z M 314.1875 25.125 " fill-opacity="1" fill-rule="evenodd"/><path fill="#4d8965" d="M 311.492188 23.5625 C 311.457031 23.253906 311.175781 23.03125 310.863281 23.066406 C 310.554688 23.101562 310.332031 23.382812 310.367188 23.695312 L 310.601562 25.722656 C 310.636719 26.035156 310.917969 26.257812 311.226562 26.222656 C 311.539062 26.183594 311.761719 25.902344 311.726562 25.59375 Z M 311.492188 23.5625 " fill-opacity="1" fill-rule="evenodd"/><path fill="#4d8965" d="M 299.515625 40.476562 C 299.574219 40.171875 299.371094 39.875 299.0625 39.816406 C 298.753906 39.761719 298.460938 39.964844 298.402344 40.273438 C 297.988281 42.519531 297.949219 42.476562 297.761719 44.742188 C 297.734375 45.054688 297.964844 45.328125 298.277344 45.355469 C 298.589844 45.382812 298.863281 45.148438 298.890625 44.835938 C 299.074219 42.628906 299.113281 42.671875 299.515625 40.476562 Z M 299.515625 40.476562 " fill-opacity="1" fill-rule="evenodd"/><path fill="#4d8965" d="M 296.875 43.171875 C 296.851562 42.859375 296.582031 42.625 296.269531 42.644531 C 295.957031 42.667969 295.722656 42.9375 295.742188 43.25 L 295.832031 44.539062 C 295.851562 44.851562 296.125 45.085938 296.4375 45.066406 C 296.75 45.042969 296.984375 44.773438 296.960938 44.460938 Z M 296.875 43.171875 " fill-opacity="1" fill-rule="evenodd"/><path fill="#4d8965" d="M 293.597656 42.53125 C 293.496094 42.234375 293.175781 42.074219 292.878906 42.175781 C 292.582031 42.277344 292.425781 42.597656 292.523438 42.894531 L 293.671875 46.289062 C 293.773438 46.585938 294.09375 46.746094 294.390625 46.644531 C 294.6875 46.542969 294.84375 46.222656 294.746094 45.925781 Z M 293.597656 42.53125 " fill-opacity="1" fill-rule="evenodd"/><path fill="#4d8965" d="M 282.132812 32.914062 C 282.234375 32.617188 282.074219 32.292969 281.777344 32.195312 C 281.484375 32.09375 281.160156 32.253906 281.058594 32.550781 C 280.433594 34.402344 280.476562 34.382812 280.023438 36.261719 C 279.949219 36.5625 280.136719 36.871094 280.441406 36.945312 C 280.746094 37.019531 281.050781 36.832031 281.125 36.527344 C 281.566406 34.699219 281.523438 34.71875 282.132812 32.914062 Z M 282.132812 32.914062 " fill-opacity="1" fill-rule="evenodd"/><path fill="#4d8965" d="M 279.574219 34.789062 C 279.566406 34.476562 279.304688 34.226562 278.992188 34.238281 C 278.679688 34.246094 278.433594 34.503906 278.441406 34.820312 L 278.453125 35.273438 C 278.460938 35.585938 278.722656 35.832031 279.035156 35.824219 C 279.347656 35.816406 279.59375 35.554688 279.585938 35.242188 Z M 279.574219 34.789062 " fill-opacity="1" fill-rule="evenodd"/><path fill="#4d8965" d="M 276.367188 33.363281 C 276.257812 33.070312 275.933594 32.921875 275.640625 33.027344 C 275.34375 33.136719 275.195312 33.460938 275.304688 33.753906 C 275.824219 35.171875 275.8125 35.136719 276.105469 36.648438 C 276.164062 36.957031 276.460938 37.160156 276.769531 37.097656 C 277.078125 37.039062 277.277344 36.742188 277.21875 36.433594 C 276.910156 34.832031 276.917969 34.867188 276.367188 33.363281 Z M 276.367188 33.363281 " fill-opacity="1" fill-rule="evenodd"/><path fill="#4d8965" d="M 256.625 39.160156 C 256.796875 38.898438 256.726562 38.546875 256.464844 38.375 C 256.203125 38.203125 255.851562 38.273438 255.679688 38.535156 C 254.640625 40.117188 254.5625 40.035156 253.820312 41.792969 C 253.695312 42.082031 253.832031 42.414062 254.121094 42.535156 C 254.410156 42.65625 254.742188 42.523438 254.863281 42.234375 C 255.5625 40.574219 255.644531 40.652344 256.625 39.160156 Z M 256.625 39.160156 " fill-opacity="1" fill-rule="evenodd"/><path fill="#4d8965" d="M 253.425781 40.121094 C 253.449219 39.808594 253.214844 39.535156 252.902344 39.511719 C 252.59375 39.488281 252.320312 39.71875 252.292969 40.03125 L 252.175781 41.515625 C 252.152344 41.828125 252.386719 42.101562 252.699219 42.128906 C 253.007812 42.152344 253.28125 41.917969 253.308594 41.605469 Z M 253.425781 40.121094 " fill-opacity="1" fill-rule="evenodd"/><path fill="#4d8965" d="M 250.566406 38.179688 C 250.488281 37.878906 250.175781 37.695312 249.875 37.773438 C 249.570312 37.851562 249.390625 38.160156 249.46875 38.464844 C 249.890625 40.101562 249.855469 40.078125 249.972656 41.757812 C 249.996094 42.066406 250.269531 42.304688 250.578125 42.28125 C 250.890625 42.257812 251.128906 41.988281 251.105469 41.675781 C 250.980469 39.894531 251.011719 39.917969 250.566406 38.179688 Z M 250.566406 38.179688 " fill-opacity="1" fill-rule="evenodd"/><path fill="#4d8965" d="M 350.035156 31.28125 C 350.195312 31.011719 350.101562 30.664062 349.832031 30.507812 C 349.5625 30.347656 349.214844 30.441406 349.054688 30.710938 C 347.464844 33.449219 347.417969 33.347656 346.035156 36.199219 C 345.898438 36.480469 346.015625 36.820312 346.296875 36.957031 C 346.578125 37.09375 346.917969 36.976562 347.054688 36.695312 C 348.417969 33.882812 348.464844 33.980469 350.035156 31.28125 Z M 350.035156 31.28125 " fill-opacity="1" fill-rule="evenodd"/><path fill="#4d8965" d="M 346.019531 32.828125 C 346.128906 32.535156 345.980469 32.207031 345.6875 32.097656 C 345.394531 31.992188 345.066406 32.140625 344.957031 32.433594 L 344.1875 34.519531 C 344.082031 34.8125 344.230469 35.136719 344.523438 35.246094 C 344.816406 35.355469 345.144531 35.203125 345.25 34.910156 Z M 346.019531 32.828125 " fill-opacity="1" fill-rule="evenodd"/><path fill="#4d8965" d="M 342.070312 31.199219 C 342.042969 30.886719 341.769531 30.65625 341.457031 30.679688 C 341.148438 30.707031 340.914062 30.980469 340.941406 31.292969 L 341.3125 35.839844 C 341.339844 36.152344 341.613281 36.386719 341.925781 36.359375 C 342.234375 36.335938 342.46875 36.0625 342.441406 35.75 Z M 342.070312 31.199219 " fill-opacity="1" fill-rule="evenodd"/><path fill="#4d8965" d="M 384.152344 25.792969 C 384.265625 25.5 384.117188 25.175781 383.824219 25.0625 C 383.53125 24.953125 383.203125 25.101562 383.09375 25.394531 L 381.460938 29.734375 C 381.347656 30.027344 381.496094 30.355469 381.789062 30.464844 C 382.082031 30.578125 382.410156 30.429688 382.519531 30.136719 Z M 384.152344 25.792969 " fill-opacity="1" fill-rule="evenodd"/><path fill="#4d8965" d="M 381.355469 27.902344 C 381.4375 27.601562 381.261719 27.289062 380.957031 27.207031 C 380.65625 27.125 380.34375 27.304688 380.261719 27.605469 L 379.640625 29.898438 C 379.558594 30.199219 379.738281 30.511719 380.039062 30.59375 C 380.34375 30.675781 380.65625 30.496094 380.734375 30.195312 Z M 381.355469 27.902344 " fill-opacity="1" fill-rule="evenodd"/><path fill="#4d8965" d="M 376.855469 26.816406 C 376.773438 26.515625 376.457031 26.339844 376.15625 26.425781 C 375.855469 26.507812 375.679688 26.824219 375.765625 27.125 L 376.761719 30.675781 C 376.847656 30.976562 377.160156 31.152344 377.460938 31.070312 C 377.761719 30.984375 377.9375 30.671875 377.851562 30.367188 Z M 376.855469 26.816406 " fill-opacity="1" fill-rule="evenodd"/><path fill="#4d8965" d="M 369.273438 33.15625 C 369.382812 32.863281 369.238281 32.535156 368.945312 32.425781 C 368.652344 32.3125 368.324219 32.457031 368.214844 32.75 L 368.011719 33.273438 C 367.902344 33.566406 368.046875 33.894531 368.339844 34.007812 C 368.632812 34.117188 368.960938 33.972656 369.070312 33.679688 Z M 369.273438 33.15625 " fill-opacity="1" fill-rule="evenodd"/><path fill="#4d8965" d="M 366.734375 34.507812 C 366.757812 34.195312 366.523438 33.925781 366.210938 33.902344 C 365.898438 33.878906 365.628906 34.113281 365.605469 34.425781 L 365.507812 35.769531 C 365.484375 36.082031 365.71875 36.355469 366.03125 36.375 C 366.34375 36.398438 366.617188 36.164062 366.636719 35.851562 Z M 366.734375 34.507812 " fill-opacity="1" fill-rule="evenodd"/><path fill="#4d8965" d="M 187.875 54.191406 C 188.183594 54.226562 188.464844 54 188.5 53.6875 C 188.53125 53.378906 188.308594 53.097656 187.996094 53.0625 L 186.300781 52.875 C 185.988281 52.84375 185.710938 53.066406 185.675781 53.378906 C 185.640625 53.691406 185.867188 53.96875 186.175781 54.003906 Z M 187.875 54.191406 " fill-opacity="1" fill-rule="evenodd"/><path fill="#4d8965" d="M 184.929688 55.84375 C 185.238281 55.863281 185.507812 55.625 185.527344 55.3125 C 185.546875 55 185.308594 54.730469 184.996094 54.714844 L 177.191406 54.242188 C 176.878906 54.222656 176.613281 54.460938 176.59375 54.773438 C 176.574219 55.085938 176.8125 55.355469 177.125 55.371094 Z M 184.929688 55.84375 " fill-opacity="1" fill-rule="evenodd"/><path fill="#4d8965" d="M 155.117188 87.234375 C 155.429688 87.203125 155.65625 86.929688 155.628906 86.617188 C 155.601562 86.304688 155.324219 86.074219 155.011719 86.105469 L 154.078125 86.191406 C 153.765625 86.21875 153.539062 86.496094 153.566406 86.808594 C 153.59375 87.117188 153.871094 87.347656 154.183594 87.320312 Z M 155.117188 87.234375 " fill-opacity="1" fill-rule="evenodd"/><path fill="#4d8965" d="M 157.398438 89.183594 C 157.710938 89.15625 157.945312 88.886719 157.917969 88.574219 C 157.894531 88.261719 157.621094 88.027344 157.3125 88.050781 L 149.105469 88.6875 C 148.792969 88.710938 148.558594 88.984375 148.582031 89.296875 C 148.605469 89.609375 148.878906 89.839844 149.191406 89.816406 Z M 157.398438 89.183594 " fill-opacity="1" fill-rule="evenodd"/><path fill="#ccf56b" d="M 242.542969 97.734375 C 242.457031 97.683594 242.316406 97.789062 242.152344 98.269531 L 242.140625 97.417969 L 242.054688 97.421875 L 242.066406 98.554688 C 242.078125 98.554688 242.089844 98.554688 242.097656 98.554688 L 242.160156 98.550781 L 242.160156 98.546875 C 242.160156 98.546875 242.160156 98.550781 242.160156 98.550781 C 242.472656 98.550781 242.722656 98.296875 242.722656 97.984375 C 242.722656 97.820312 242.65625 97.671875 242.542969 97.734375 Z M 242.542969 97.734375 " fill-opacity="1" fill-rule="evenodd"/><path fill="#ccf56b" d="M 242.914062 100.234375 C 243.226562 100.222656 243.472656 99.960938 243.464844 99.648438 C 243.453125 99.335938 243.191406 99.089844 242.878906 99.101562 C 239.183594 99.214844 239.253906 99.175781 235.605469 99.371094 C 235.292969 99.390625 235.054688 99.65625 235.070312 99.96875 C 235.085938 100.28125 235.355469 100.523438 235.667969 100.503906 C 239.304688 100.308594 239.234375 100.347656 242.914062 100.234375 Z M 242.914062 100.234375 " fill-opacity="1" fill-rule="evenodd"/><path fill="#ccf56b" d="M 321.347656 60.277344 C 321.660156 60.265625 321.902344 60 321.894531 59.6875 C 321.878906 59.375 321.617188 59.132812 321.304688 59.144531 L 319.363281 59.21875 C 319.050781 59.230469 318.808594 59.492188 318.820312 59.804688 C 318.832031 60.117188 319.09375 60.363281 319.40625 60.351562 Z M 321.347656 60.277344 " fill-opacity="1" fill-rule="evenodd"/><path fill="#ccf56b" d="M 320.269531 61.84375 C 320.582031 61.847656 320.839844 61.597656 320.84375 61.285156 C 320.847656 60.972656 320.597656 60.714844 320.285156 60.710938 C 317.4375 60.667969 317.484375 60.691406 314.632812 60.738281 C 314.320312 60.742188 314.070312 61 314.074219 61.3125 C 314.082031 61.625 314.339844 61.875 314.648438 61.871094 C 317.484375 61.828125 317.4375 61.800781 320.269531 61.84375 Z M 320.269531 61.84375 " fill-opacity="1" fill-rule="evenodd"/><path fill="#4d8965" d="M 113.855469 42.582031 C 114.171875 42.574219 114.417969 42.3125 114.40625 42 C 114.398438 41.6875 114.136719 41.441406 113.824219 41.449219 L 110.765625 41.535156 C 110.453125 41.542969 110.203125 41.804688 110.214844 42.117188 C 110.222656 42.433594 110.484375 42.679688 110.796875 42.671875 Z M 113.855469 42.582031 " fill-opacity="1" fill-rule="evenodd"/><path fill="#4d8965" d="M 107.769531 42.757812 C 108.078125 42.730469 108.3125 42.457031 108.285156 42.144531 C 108.261719 41.835938 107.984375 41.601562 107.675781 41.628906 L 104.652344 41.878906 C 104.339844 41.90625 104.109375 42.179688 104.136719 42.492188 C 104.160156 42.804688 104.433594 43.035156 104.746094 43.007812 Z M 107.769531 42.757812 " fill-opacity="1" fill-rule="evenodd"/><path fill="#4d8965" d="M 54.804688 31.644531 C 55.117188 31.613281 55.34375 31.332031 55.3125 31.023438 C 55.277344 30.710938 55 30.484375 54.691406 30.515625 L 50.160156 30.976562 C 49.847656 31.007812 49.621094 31.289062 49.652344 31.597656 C 49.683594 31.910156 49.964844 32.136719 50.273438 32.105469 Z M 54.804688 31.644531 " fill-opacity="1" fill-rule="evenodd"/><path fill="#4d8965" d="M 51.761719 29.324219 C 52.074219 29.292969 52.300781 29.011719 52.265625 28.703125 C 52.234375 28.390625 51.953125 28.164062 51.640625 28.199219 L 40.90625 29.347656 C 40.59375 29.382812 40.367188 29.660156 40.402344 29.972656 C 40.433594 30.285156 40.714844 30.511719 41.023438 30.476562 Z M 51.761719 29.324219 " fill-opacity="1" fill-rule="evenodd"/></g></g></g></g></g></svg>